<?xml version="1.0" encoding="UTF-8"?>
<!DOCTYPE svg PUBLIC "-//W3C//DTD SVG 1.1//EN" "http://www.w3.org/Graphics/SVG/1.1/DTD/svg11.dtd">
<svg xmlns="http://www.w3.org/2000/svg" version="1.1" width="281px" height="71px" style="shape-rendering:geometricPrecision; text-rendering:geometricPrecision; image-rendering:optimizeQuality; fill-rule:evenodd; clip-rule:evenodd" xmlns:xlink="http://www.w3.org/1999/xlink">
<g><path style="opacity:1" fill="#edecec" d="M -0.5,-0.5 C 42.8333,-0.5 86.1667,-0.5 129.5,-0.5C 129.393,1.37857 129.893,1.7119 131,0.5C 131.173,6.34821 131.673,12.0149 132.5,17.5C 132.5,18.8333 132.5,20.1667 132.5,21.5C 133.552,21.3505 134.552,21.5172 135.5,22C 133.574,22.4224 132.574,23.5891 132.5,25.5C 131.694,26.7281 130.694,27.7281 129.5,28.5C 127.1,29.9272 126.433,29.4272 127.5,27C 125.926,26.3013 124.593,26.6346 123.5,28C 109.504,28.4999 95.504,28.6666 81.5,28.5C 81.6741,26.139 82.0074,23.8056 82.5,21.5C 83.0431,21.44 83.3764,21.1067 83.5,20.5C 78.544,19.5059 73.544,19.1725 68.5,19.5C 66.3041,14.225 63.9708,14.225 61.5,19.5C 60.8333,19.1667 60.1667,18.8333 59.5,18.5C 58.8333,15.8333 57.1667,14.1667 54.5,13.5C 48.9185,6.96331 42.2518,5.79664 34.5,10C 32.1294,12.706 29.4628,15.0394 26.5,17C 21.8964,17.9232 17.563,19.5899 13.5,22C 11.6217,23.5429 10.1217,25.3762 9,27.5C 8.47852,24.4176 6.97852,23.4176 4.5,24.5C 3.77842,24.0825 3.27842,23.4158 3,22.5C 2.18405,23.8228 1.01739,24.4894 -0.5,24.5C -0.5,16.1667 -0.5,7.83333 -0.5,-0.5 Z"/></g>
<g><path style="opacity:1" fill="#eeeaeb" d="M 129.5,-0.5 C 166.167,-0.5 202.833,-0.5 239.5,-0.5C 237.545,0.447393 237.211,1.78073 238.5,3.5C 235.216,4.65695 231.882,4.82362 228.5,4C 230.001,2.74848 231.668,1.74848 233.5,1C 229.594,0.468816 226.261,1.63548 223.5,4.5C 224.687,4.55357 226.02,4.8869 227.5,5.5C 225.035,6.79495 223.035,8.46161 221.5,10.5C 220.5,10.8333 219.833,11.5 219.5,12.5C 217.833,13.8333 216.167,15.1667 214.5,16.5C 215.526,13.6277 217.192,11.1277 219.5,9C 210.703,7.758 202.87,9.92467 196,15.5C 195.493,14.0039 195.993,12.8373 197.5,12C 191.999,12.2487 187.333,14.4154 183.5,18.5C 183.511,16.9826 184.177,15.8159 185.5,15C 176.041,14.3543 167.041,15.8543 158.5,19.5C 154.548,20.2721 150.548,20.6054 146.5,20.5C 145.871,26.4568 142.537,29.1235 136.5,28.5C 137.96,26.5372 139.627,24.7038 141.5,23C 138.394,23.2058 135.394,24.0392 132.5,25.5C 132.574,23.5891 133.574,22.4224 135.5,22C 134.552,21.5172 133.552,21.3505 132.5,21.5C 132.5,20.1667 132.5,18.8333 132.5,17.5C 131.673,12.0149 131.173,6.34821 131,0.5C 129.893,1.7119 129.393,1.37857 129.5,-0.5 Z"/></g>
<g><path style="opacity:1" fill="#a04142" d="M 106.5,0.5 C 107.75,0.57735 108.583,1.24402 109,2.5C 111.102,7.47393 112.769,12.4739 114,17.5C 109.667,10.8333 105.333,10.8333 101,17.5C 102.213,11.715 104.046,6.04838 106.5,0.5 Z"/></g>
<g><path style="opacity:1" fill="#201d16" d="M 54.5,13.5 C 51.9955,11.8557 49.3289,10.3557 46.5,9C 38.591,8.9545 32.2576,12.1212 27.5,18.5C 25.5,20.1667 23.5,21.8333 21.5,23.5C 21.5106,21.9826 22.1772,20.8159 23.5,20C 16.4908,20.3414 11.8241,23.8414 9.5,30.5C 8.52717,29.2086 7.52717,29.2086 6.5,30.5C 5.70549,28.5049 5.03883,26.5049 4.5,24.5C 6.97852,23.4176 8.47852,24.4176 9,27.5C 10.1217,25.3762 11.6217,23.5429 13.5,22C 17.563,19.5899 21.8964,17.9232 26.5,17C 29.4628,15.0394 32.1294,12.706 34.5,10C 42.2518,5.79664 48.9185,6.96331 54.5,13.5 Z"/></g>
<g><path style="opacity:1" fill="#fae4e6" d="M 106.5,4.5 C 107.376,4.36912 108.043,4.70245 108.5,5.5C 111.978,10.3878 110.645,12.3878 104.5,11.5C 104.878,9.07905 105.545,6.74571 106.5,4.5 Z"/></g>
<g><path style="opacity:1" fill="#e77428" d="M 249.5,3.5 C 252.247,3.18665 254.914,3.51998 257.5,4.5C 254.875,10.7456 252.542,17.0789 250.5,23.5C 248.786,24.7384 246.786,25.405 244.5,25.5C 240.831,26.3029 238.164,25.1362 236.5,22C 237.428,21.6121 238.095,20.9454 238.5,20C 237.427,18.5838 237.427,17.2504 238.5,16C 235.443,15.4494 235.11,13.7828 237.5,11C 235.311,10.323 234.978,9.15631 236.5,7.5C 235.113,7.19283 233.446,7.19283 231.5,7.5C 237.174,5.17508 243.174,3.84174 249.5,3.5 Z"/></g>
<g><path style="opacity:1" fill="#9f3c3d" d="M 120.5,0.5 C 124.164,-0.000113814 127.164,1.16655 129.5,4C 120.098,0.134782 116.265,3.30145 118,13.5C 121.588,17.3927 125.254,17.3927 129,13.5C 129.507,14.9961 129.007,16.1627 127.5,17C 118.386,18.553 114.553,14.7197 116,5.5C 117.025,3.31305 118.525,1.64638 120.5,0.5 Z"/></g>
<g><path style="opacity:1" fill="#a63938" d="M 132.5,17.5 C 132.334,11.8236 132.501,6.15688 133,0.5C 133.497,3.14603 133.664,5.8127 133.5,8.5C 136.833,8.5 140.167,8.5 143.5,8.5C 144.221,-2.04239 144.887,-1.87572 145.5,9C 144.887,19.8757 144.221,20.0424 143.5,9.5C 140.167,9.5 136.833,9.5 133.5,9.5C 133.806,12.3854 133.473,15.0521 132.5,17.5 Z"/></g>
<g><path style="opacity:1" fill="#a64648" d="M 88.5,0.5 C 91.5184,0.335374 94.5184,0.50204 97.5,1C 101.5,4.33333 101.5,7.66667 97.5,11C 95.1902,11.4966 92.8568,11.6633 90.5,11.5C 90.7989,13.604 90.4656,15.604 89.5,17.5C 88.5046,11.8722 88.1712,6.20555 88.5,0.5 Z"/></g>
<g><path style="opacity:1" fill="#fdf1f2" d="M 90.5,2.5 C 92.8568,2.33669 95.1902,2.50335 97.5,3C 98.8333,5 98.8333,7 97.5,9C 95.1902,9.49665 92.8568,9.66331 90.5,9.5C 90.5,7.16667 90.5,4.83333 90.5,2.5 Z"/></g>
<g><path style="opacity:1" fill="#a23a3b" d="M 149.5,0.5 C 153.226,0.177442 156.893,0.510775 160.5,1.5C 157.572,2.48408 154.572,2.81741 151.5,2.5C 151.5,4.5 151.5,6.5 151.5,8.5C 162.167,8.83333 162.167,9.16667 151.5,9.5C 151.5,11.8333 151.5,14.1667 151.5,16.5C 154.518,16.3354 157.518,16.502 160.5,17C 156.848,17.4986 153.182,17.6653 149.5,17.5C 149.5,11.8333 149.5,6.16667 149.5,0.5 Z"/></g>
<g><path style="opacity:1" fill="#9a3434" d="M 78.5,0.5 C 81.7923,5.58716 84.459,11.0872 86.5,17C 86.1667,17.1667 85.8333,17.3333 85.5,17.5C 83.2997,12.5766 79.633,11.2433 74.5,13.5C 74.0234,14.931 73.3567,16.2643 72.5,17.5C 73.5156,11.7366 75.5156,6.06993 78.5,0.5 Z"/></g>
<g><path style="opacity:1" fill="#fae5e6" d="M 78.5,3.5 C 80.2671,5.79157 81.2671,8.45824 81.5,11.5C 79.396,11.7989 77.396,11.4656 75.5,10.5C 76.7019,8.21955 77.7019,5.88622 78.5,3.5 Z"/></g>
<g><path style="opacity:1" fill="#241f13" d="M 54.5,13.5 C 57.1667,14.1667 58.8333,15.8333 59.5,18.5C 57.5,17.1667 55.8333,15.5 54.5,13.5 Z"/></g>
<g><path style="opacity:1" fill="#df612e" d="M 244.5,25.5 C 242.786,26.7384 240.786,27.405 238.5,27.5C 233.5,27.5 228.5,27.5 223.5,27.5C 224.609,26.71 225.942,26.21 227.5,26C 225.446,24.3179 225.779,22.6512 228.5,21C 227.375,18.8606 226.042,17.6939 224.5,17.5C 225.358,15.2081 226.358,12.8748 227.5,10.5C 227.333,10.1667 227.167,9.83333 227,9.5C 224.763,11.2036 222.263,12.2036 219.5,12.5C 219.833,11.5 220.5,10.8333 221.5,10.5C 224.655,8.9236 227.988,7.9236 231.5,7.5C 233.446,7.19283 235.113,7.19283 236.5,7.5C 234.978,9.15631 235.311,10.323 237.5,11C 235.11,13.7828 235.443,15.4494 238.5,16C 237.427,17.2504 237.427,18.5838 238.5,20C 238.095,20.9454 237.428,21.6121 236.5,22C 238.164,25.1362 240.831,26.3029 244.5,25.5 Z"/></g>
<g><path style="opacity:1" fill="#d84e33" d="M 223.5,27.5 C 219.167,27.5 214.833,27.5 210.5,27.5C 211.609,24.2672 212.442,20.9338 213,17.5C 213.383,16.944 213.883,16.6107 214.5,16.5C 216.167,15.1667 217.833,13.8333 219.5,12.5C 222.263,12.2036 224.763,11.2036 227,9.5C 227.167,9.83333 227.333,10.1667 227.5,10.5C 226.358,12.8748 225.358,15.2081 224.5,17.5C 226.042,17.6939 227.375,18.8606 228.5,21C 225.779,22.6512 225.446,24.3179 227.5,26C 225.942,26.21 224.609,26.71 223.5,27.5 Z"/></g>
<g><path style="opacity:1" fill="#f39829" d="M 249.5,3.5 C 256.605,1.95326 263.605,2.78659 270.5,6C 276.613,9.07521 279.446,13.9085 279,20.5C 278.626,21.4162 278.126,22.2496 277.5,23C 271.852,27.1583 265.852,30.6583 259.5,33.5C 256.527,31.1938 253.86,28.5272 251.5,25.5C 254.258,24.0335 253.925,23.3668 250.5,23.5C 252.542,17.0789 254.875,10.7456 257.5,4.5C 254.914,3.51998 252.247,3.18665 249.5,3.5 Z"/></g>
<g><path style="opacity:1" fill="#e9db5e" d="M 54.5,13.5 C 55.8333,15.5 57.5,17.1667 59.5,18.5C 58.7375,19.2679 57.7375,19.7679 56.5,20C 57.056,20.3826 57.3893,20.8826 57.5,21.5C 57.0472,22.4584 56.3805,23.2917 55.5,24C 56.1258,24.7504 56.6258,25.5838 57,26.5C 58,23.8333 59,23.8333 60,26.5C 60.4955,24.5273 60.6621,22.5273 60.5,20.5C 61.1667,20.5 61.5,20.1667 61.5,19.5C 63.0443,19.2969 64.3777,18.6302 65.5,17.5C 66.086,17.7093 66.586,18.0426 67,18.5C 69.8578,26.0194 68.6911,32.6861 63.5,38.5C 59.8183,38.6653 56.1516,38.4986 52.5,38C 51.5838,37.6258 50.7504,37.1258 50,36.5C 49.5065,38.1341 49.3398,39.8008 49.5,41.5C 54.1001,41.3451 54.4334,42.0118 50.5,43.5C 49.5836,43.4573 48.9169,43.1239 48.5,42.5C 48.4249,39.7938 48.0916,37.1272 47.5,34.5C 47.7352,33.9033 48.2352,33.5699 49,33.5C 51.245,35.6225 53.9116,36.9558 57,37.5C 59.2702,36.1401 61.7702,35.4734 64.5,35.5C 64.4332,33.5992 64.7665,31.7659 65.5,30C 64.7107,29.4536 63.7107,28.7869 62.5,28C 63.5536,26.6124 63.7203,25.1124 63,23.5C 62.1628,25.8442 60.8294,27.8442 59,29.5C 57.324,28.9389 55.9906,27.9389 55,26.5C 54.6667,22.8333 54.3333,19.1667 54,15.5C 51.4906,13.5626 48.6573,12.5626 45.5,12.5C 45.33,13.8221 45.6634,14.9887 46.5,16C 44.981,17.3513 43.6477,18.8513 42.5,20.5C 41.1696,18.6531 41.503,17.1531 43.5,16C 42.2532,14.5421 42.2532,13.0421 43.5,11.5C 42.3112,10.5713 40.9778,10.238 39.5,10.5C 39.5,12.1667 39.5,13.8333 39.5,15.5C 38.0222,15.238 36.6888,15.5713 35.5,16.5C 34.9264,18.0589 34.2598,19.5589 33.5,21C 34.8333,21 36.1667,21 37.5,21C 36.7476,21.6708 36.4142,22.5041 36.5,23.5C 35.8335,28.0166 35.1669,32.6833 34.5,37.5C 33.2613,37.9424 32.2613,38.6091 31.5,39.5C 29.1535,42.0354 26.4868,42.7021 23.5,41.5C 21.4833,39.7826 21.15,37.7826 22.5,35.5C 22.0431,34.7025 21.3764,34.3691 20.5,34.5C 20.4431,33.391 20.1098,32.391 19.5,31.5C 21.4237,26.7584 24.0904,22.4251 27.5,18.5C 32.2576,12.1212 38.591,8.9545 46.5,9C 49.3289,10.3557 51.9955,11.8557 54.5,13.5 Z"/></g>
<g><path style="opacity:1" fill="#160a02" d="M 59.5,18.5 C 60.1667,18.8333 60.8333,19.1667 61.5,19.5C 61.5,20.1667 61.1667,20.5 60.5,20.5C 59.609,21.1098 58.609,21.4431 57.5,21.5C 57.3893,20.8826 57.056,20.3826 56.5,20C 57.7375,19.7679 58.7375,19.2679 59.5,18.5 Z"/></g>
<g><path style="opacity:1" fill="#695c1a" d="M 30.5,17.5 C 31.3764,17.3691 32.0431,17.7025 32.5,18.5C 31.2338,19.7236 30.0672,21.0569 29,22.5C 28.3872,20.5048 28.8872,18.8381 30.5,17.5 Z"/></g>
<g><path style="opacity:1" fill="#615b15" d="M 60.5,20.5 C 60.6621,22.5273 60.4955,24.5273 60,26.5C 59,23.8333 58,23.8333 57,26.5C 56.6258,25.5838 56.1258,24.7504 55.5,24C 56.3805,23.2917 57.0472,22.4584 57.5,21.5C 58.609,21.4431 59.609,21.1098 60.5,20.5 Z"/></g>
<g><path style="opacity:1" fill="#eeedec" d="M 239.5,-0.5 C 253.167,-0.5 266.833,-0.5 280.5,-0.5C 280.5,23.1667 280.5,46.8333 280.5,70.5C 258.5,70.5 236.5,70.5 214.5,70.5C 216.078,68.6824 215.578,67.6824 213,67.5C 211.2,68.3784 209.367,69.045 207.5,69.5C 207.473,67.8007 206.806,66.4674 205.5,65.5C 210.5,65.5 215.5,65.5 220.5,65.5C 220.575,62.7938 220.908,60.1272 221.5,57.5C 227.621,57.9101 233.621,57.4101 239.5,56C 241.049,54.786 242.215,53.286 243,51.5C 243.855,47.285 245.022,43.285 246.5,39.5C 250.709,37.2288 255.042,35.2288 259.5,33.5C 265.852,30.6583 271.852,27.1583 277.5,23C 278.126,22.2496 278.626,21.4162 279,20.5C 279.446,13.9085 276.613,9.07521 270.5,6C 263.605,2.78659 256.605,1.95326 249.5,3.5C 243.174,3.84174 237.174,5.17508 231.5,7.5C 227.988,7.9236 224.655,8.9236 221.5,10.5C 223.035,8.46161 225.035,6.79495 227.5,5.5C 226.02,4.8869 224.687,4.55357 223.5,4.5C 226.261,1.63548 229.594,0.468816 233.5,1C 231.668,1.74848 230.001,2.74848 228.5,4C 231.882,4.82362 235.216,4.65695 238.5,3.5C 237.211,1.78073 237.545,0.447393 239.5,-0.5 Z"/></g>
<g><path style="opacity:1" fill="#b22745" d="M 183.5,18.5 C 182.883,18.6107 182.383,18.944 182,19.5C 176.981,15.6049 171.814,15.6049 166.5,19.5C 167.689,20.4287 169.022,20.762 170.5,20.5C 170.167,22.5 169.833,24.5 169.5,26.5C 174.179,26.3342 178.845,26.5008 183.5,27C 184.056,27.3826 184.389,27.8826 184.5,28.5C 176.167,28.5 167.833,28.5 159.5,28.5C 159.851,25.7623 160.518,23.0956 161.5,20.5C 160.675,19.6143 159.675,19.281 158.5,19.5C 167.041,15.8543 176.041,14.3543 185.5,15C 184.177,15.8159 183.511,16.9826 183.5,18.5 Z"/></g>
<g><path style="opacity:1" fill="#c82439" d="M 214.5,16.5 C 213.883,16.6107 213.383,16.944 213,17.5C 212.442,20.9338 211.609,24.2672 210.5,27.5C 201.792,27.2555 193.126,27.5888 184.5,28.5C 184.389,27.8826 184.056,27.3826 183.5,27C 178.845,26.5008 174.179,26.3342 169.5,26.5C 169.833,24.5 170.167,22.5 170.5,20.5C 169.022,20.762 167.689,20.4287 166.5,19.5C 171.814,15.6049 176.981,15.6049 182,19.5C 182.383,18.944 182.883,18.6107 183.5,18.5C 187.333,14.4154 191.999,12.2487 197.5,12C 195.993,12.8373 195.493,14.0039 196,15.5C 202.87,9.92467 210.703,7.758 219.5,9C 217.192,11.1277 215.526,13.6277 214.5,16.5 Z"/></g>
<g><path style="opacity:1" fill="#1c1b16" d="M 21.5,23.5 C 21.573,25.0269 20.9063,26.0269 19.5,26.5C 19.5,25.8333 19.5,25.1667 19.5,24.5C 20.1667,24.1667 20.8333,23.8333 21.5,23.5 Z"/></g>
<g><path style="opacity:1" fill="#f5f3b4" d="M 27.5,18.5 C 24.0904,22.4251 21.4237,26.7584 19.5,31.5C 19.5,29.8333 19.5,28.1667 19.5,26.5C 20.9063,26.0269 21.573,25.0269 21.5,23.5C 23.5,21.8333 25.5,20.1667 27.5,18.5 Z"/></g>
<g><path style="opacity:1" fill="#fccd9b" d="M 250.5,23.5 C 253.925,23.3668 254.258,24.0335 251.5,25.5C 248.215,25.9281 245.215,26.9281 242.5,28.5C 241.167,28.5 239.833,28.5 238.5,28.5C 238.5,28.1667 238.5,27.8333 238.5,27.5C 240.786,27.405 242.786,26.7384 244.5,25.5C 246.786,25.405 248.786,24.7384 250.5,23.5 Z"/></g>
<g><path style="opacity:1" fill="#f6f1bd" d="M 21.5,23.5 C 20.8333,23.8333 20.1667,24.1667 19.5,24.5C 18.8826,24.3893 18.3826,24.056 18,23.5C 14.9428,26.0611 12.1094,28.7277 9.5,31.5C 9.5,31.1667 9.5,30.8333 9.5,30.5C 11.8241,23.8414 16.4908,20.3414 23.5,20C 22.1772,20.8159 21.5106,21.9826 21.5,23.5 Z"/></g>
<g><path style="opacity:1" fill="#ac4747" d="M 210.5,27.5 C 214.833,27.5 219.167,27.5 223.5,27.5C 228.5,27.5 233.5,27.5 238.5,27.5C 238.5,27.8333 238.5,28.1667 238.5,28.5C 220.291,28.5617 202.291,28.5617 184.5,28.5C 193.126,27.5888 201.792,27.2555 210.5,27.5 Z"/></g>
<g><path style="opacity:1" fill="#adab83" d="M 4.5,24.5 C 5.03883,26.5049 5.70549,28.5049 6.5,30.5C 7.52717,29.2086 8.52717,29.2086 9.5,30.5C 9.5,30.8333 9.5,31.1667 9.5,31.5C 9.5,34.8333 9.5,38.1667 9.5,41.5C 8.52056,38.3752 8.18723,35.0419 8.5,31.5C 7.16667,31.5 5.83333,31.5 4.5,31.5C 2.57471,29.7069 0.908042,27.7069 -0.5,25.5C -0.5,25.1667 -0.5,24.8333 -0.5,24.5C 1.01739,24.4894 2.18405,23.8228 3,22.5C 3.27842,23.4158 3.77842,24.0825 4.5,24.5 Z"/></g>
<g><path style="opacity:1" fill="#fbea51" d="M 47.5,34.5 C 45.4041,34.596 43.2374,34.596 41,34.5C 40.5814,35.6721 39.9147,36.6721 39,37.5C 39.1084,32.7197 38.275,28.3864 36.5,24.5C 36.5,24.1667 36.5,23.8333 36.5,23.5C 36.4142,22.5041 36.7476,21.6708 37.5,21C 36.1667,21 34.8333,21 33.5,21C 34.2598,19.5589 34.9264,18.0589 35.5,16.5C 36.6888,15.5713 38.0222,15.238 39.5,15.5C 39.5,13.8333 39.5,12.1667 39.5,10.5C 40.9778,10.238 42.3112,10.5713 43.5,11.5C 42.2532,13.0421 42.2532,14.5421 43.5,16C 41.503,17.1531 41.1696,18.6531 42.5,20.5C 43.6477,18.8513 44.981,17.3513 46.5,16C 45.6634,14.9887 45.33,13.8221 45.5,12.5C 48.6573,12.5626 51.4906,13.5626 54,15.5C 54.3333,19.1667 54.6667,22.8333 55,26.5C 55.9906,27.9389 57.324,28.9389 59,29.5C 60.8294,27.8442 62.1628,25.8442 63,23.5C 63.7203,25.1124 63.5536,26.6124 62.5,28C 63.7107,28.7869 64.7107,29.4536 65.5,30C 64.7665,31.7659 64.4332,33.5992 64.5,35.5C 61.7702,35.4734 59.2702,36.1401 57,37.5C 53.9116,36.9558 51.245,35.6225 49,33.5C 48.2352,33.5699 47.7352,33.9033 47.5,34.5 Z"/></g>
<g><path style="opacity:1" fill="#191204" d="M 46.5,21.5 C 47.5,21.5 48.5,21.5 49.5,21.5C 49.719,22.675 49.3857,23.675 48.5,24.5C 47.2679,23.8555 45.9346,23.6888 44.5,24C 45.3805,23.2917 46.0472,22.4584 46.5,21.5 Z"/></g>
<g><path style="opacity:1" fill="#fbeb4f" d="M 31.5,21.5 C 32.1499,21.8039 32.8165,22.1373 33.5,22.5C 34.4933,27.1196 34.8266,31.7863 34.5,36.5C 30.9351,37.7769 27.2684,38.7769 23.5,39.5C 23.2436,37.2075 23.5769,35.0408 24.5,33C 26.4089,32.5521 27.5756,33.3855 28,35.5C 28.4017,34.1279 28.9017,32.7946 29.5,31.5C 28.1667,31.1667 26.8333,30.8333 25.5,30.5C 28.3074,28.0282 30.3074,25.0282 31.5,21.5 Z"/></g>
<g><path style="opacity:1" fill="#e07632" d="M 251.5,25.5 C 253.86,28.5272 256.527,31.1938 259.5,33.5C 255.042,35.2288 250.709,37.2288 246.5,39.5C 246.664,36.8127 246.497,34.146 246,31.5C 245.28,29.9443 244.113,28.9443 242.5,28.5C 245.215,26.9281 248.215,25.9281 251.5,25.5 Z"/></g>
<g><path style="opacity:1" fill="#696028" d="M 36.5,23.5 C 36.5,23.8333 36.5,24.1667 36.5,24.5C 37.4625,28.796 37.6292,33.1294 37,37.5C 35.4157,38.8613 33.5824,39.528 31.5,39.5C 32.2613,38.6091 33.2613,37.9424 34.5,37.5C 35.1669,32.6833 35.8335,28.0166 36.5,23.5 Z"/></g>
<g><path style="opacity:1" fill="#242016" d="M 4.5,31.5 C 5.83333,31.5 7.16667,31.5 8.5,31.5C 8.18723,35.0419 8.52056,38.3752 9.5,41.5C 9.5,42.5 9.5,43.5 9.5,44.5C 8.55949,41.8749 7.39282,41.8749 6,44.5C 5.36405,48.7035 7.19739,51.0369 11.5,51.5C 11.5,50.5 11.5,49.5 11.5,48.5C 12.4448,50.7042 12.6115,53.0375 12,55.5C 14.557,57.3142 17.2236,57.6475 20,56.5C 20.8816,53.2105 21.5483,49.8772 22,46.5C 24.4797,48.1661 27.313,48.9994 30.5,49C 26.583,52.4692 26.9163,55.6359 31.5,58.5C 33.9024,56.0908 36.5691,54.0908 39.5,52.5C 41.2646,53.4614 43.2646,53.7947 45.5,53.5C 45.6641,50.8127 45.4974,48.146 45,45.5C 44.6174,44.944 44.1174,44.6107 43.5,44.5C 43.1928,42.5542 43.1928,40.8875 43.5,39.5C 45.0287,40.7629 46.6954,41.7629 48.5,42.5C 48.9169,43.1239 49.5836,43.4573 50.5,43.5C 54.4334,42.0118 54.1001,41.3451 49.5,41.5C 49.3398,39.8008 49.5065,38.1341 50,36.5C 50.7504,37.1258 51.5838,37.6258 52.5,38C 56.1516,38.4986 59.8183,38.6653 63.5,38.5C 61.1234,39.8873 58.4568,40.7206 55.5,41C 52.8933,45.9935 49.7266,46.4935 46,42.5C 46.1157,45.977 46.6157,49.477 47.5,53C 44.9488,55.6477 41.9488,56.1477 38.5,54.5C 31.6075,61.9411 26.9409,60.6078 24.5,50.5C 22.3578,52.5703 21.0244,55.0703 20.5,58C 17.366,58.7901 14.366,58.4568 11.5,57C 10.6198,55.6439 10.2865,54.1439 10.5,52.5C 6.77415,51.9443 4.44082,49.7777 3.5,46C 7.03391,41.3677 7.36724,36.5343 4.5,31.5 Z"/></g>
<g><path style="opacity:1" fill="#f5e658" d="M 19.5,24.5 C 19.5,25.1667 19.5,25.8333 19.5,26.5C 16.8049,29.451 17.1382,32.1177 20.5,34.5C 20.3379,36.5273 20.5045,38.5273 21,40.5C 21.6708,41.2524 22.5041,41.5858 23.5,41.5C 26.4868,42.7021 29.1535,42.0354 31.5,39.5C 33.5824,39.528 35.4157,38.8613 37,37.5C 37.6292,33.1294 37.4625,28.796 36.5,24.5C 38.275,28.3864 39.1084,32.7197 39,37.5C 39.9147,36.6721 40.5814,35.6721 41,34.5C 43.2374,34.596 45.4041,34.596 47.5,34.5C 48.0916,37.1272 48.4249,39.7938 48.5,42.5C 46.6954,41.7629 45.0287,40.7629 43.5,39.5C 43.1928,40.8875 43.1928,42.5542 43.5,44.5C 42.4625,45.9303 41.7959,47.597 41.5,49.5C 40.0937,49.9731 39.427,50.9731 39.5,52.5C 36.5691,54.0908 33.9024,56.0908 31.5,58.5C 26.9163,55.6359 26.583,52.4692 30.5,49C 27.313,48.9994 24.4797,48.1661 22,46.5C 21.5483,49.8772 20.8816,53.2105 20,56.5C 17.2236,57.6475 14.557,57.3142 12,55.5C 12.6115,53.0375 12.4448,50.7042 11.5,48.5C 11.3404,46.847 10.6737,45.5137 9.5,44.5C 9.5,43.5 9.5,42.5 9.5,41.5C 9.5,38.1667 9.5,34.8333 9.5,31.5C 12.1094,28.7277 14.9428,26.0611 18,23.5C 18.3826,24.056 18.8826,24.3893 19.5,24.5 Z"/></g>
<g><path style="opacity:1" fill="#1d1401" d="M 20.5,34.5 C 21.3764,34.3691 22.0431,34.7025 22.5,35.5C 21.15,37.7826 21.4833,39.7826 23.5,41.5C 22.5041,41.5858 21.6708,41.2524 21,40.5C 20.5045,38.5273 20.3379,36.5273 20.5,34.5 Z"/></g>
<g><path style="opacity:1" fill="#4e4838" d="M 19.5,26.5 C 19.5,28.1667 19.5,29.8333 19.5,31.5C 20.1098,32.391 20.4431,33.391 20.5,34.5C 17.1382,32.1177 16.8049,29.451 19.5,26.5 Z"/></g>
<g><path style="opacity:1" fill="#ededed" d="M -0.5,25.5 C 0.908042,27.7069 2.57471,29.7069 4.5,31.5C 7.36724,36.5343 7.03391,41.3677 3.5,46C 4.44082,49.7777 6.77415,51.9443 10.5,52.5C 10.2865,54.1439 10.6198,55.6439 11.5,57C 14.366,58.4568 17.366,58.7901 20.5,58C 21.0244,55.0703 22.3578,52.5703 24.5,50.5C 26.9409,60.6078 31.6075,61.9411 38.5,54.5C 41.9488,56.1477 44.9488,55.6477 47.5,53C 46.6157,49.477 46.1157,45.977 46,42.5C 49.7266,46.4935 52.8933,45.9935 55.5,41C 58.4568,40.7206 61.1234,39.8873 63.5,38.5C 64.0967,38.7352 64.4301,39.2352 64.5,40C 63.0786,45.1067 61.9119,50.2734 61,55.5C 60.5,56 60,56.5 59.5,57C 75.7923,56.9974 92.1256,57.1641 108.5,57.5C 108.123,59.258 107.456,60.9246 106.5,62.5C 107.425,63.5624 108.425,63.5624 109.5,62.5C 110.5,62.5 111.5,62.5 112.5,62.5C 112.298,64.9892 112.798,67.3225 114,69.5C 115.487,68.7471 115.654,67.9138 114.5,67C 115.931,65.4379 117.431,63.9379 119,62.5C 119.395,65.2066 119.895,67.8733 120.5,70.5C 80.1667,70.5 39.8333,70.5 -0.5,70.5C -0.5,55.5 -0.5,40.5 -0.5,25.5 Z"/></g>
<g><path style="opacity:1" fill="#d4cb5e" d="M 9.5,44.5 C 10.6737,45.5137 11.3404,46.847 11.5,48.5C 11.5,49.5 11.5,50.5 11.5,51.5C 7.19739,51.0369 5.36405,48.7035 6,44.5C 7.39282,41.8749 8.55949,41.8749 9.5,44.5 Z"/></g>
<g><path style="opacity:1" fill="#302006" d="M 41.5,49.5 C 41.573,51.0269 40.9063,52.0269 39.5,52.5C 39.427,50.9731 40.0937,49.9731 41.5,49.5 Z"/></g>
<g><path style="opacity:1" fill="#cdbc51" d="M 43.5,44.5 C 44.1174,44.6107 44.6174,44.944 45,45.5C 45.4974,48.146 45.6641,50.8127 45.5,53.5C 43.2646,53.7947 41.2646,53.4614 39.5,52.5C 40.9063,52.0269 41.573,51.0269 41.5,49.5C 41.7959,47.597 42.4625,45.9303 43.5,44.5 Z"/></g>
<g><path style="opacity:1" fill="#0c0c13" d="M 68.5,19.5 C 73.1667,20.1667 77.8333,20.8333 82.5,21.5C 82.0074,23.8056 81.6741,26.139 81.5,28.5C 95.504,28.6666 109.504,28.4999 123.5,28C 124.593,26.6346 125.926,26.3013 127.5,27C 126.433,29.4272 127.1,29.9272 129.5,28.5C 131.833,28.5 134.167,28.5 136.5,28.5C 142.537,29.1235 145.871,26.4568 146.5,20.5C 150.548,20.6054 154.548,20.2721 158.5,19.5C 159.675,19.281 160.675,19.6143 161.5,20.5C 160.518,23.0956 159.851,25.7623 159.5,28.5C 167.833,28.5 176.167,28.5 184.5,28.5C 202.291,28.5617 220.291,28.5617 238.5,28.5C 239.833,28.5 241.167,28.5 242.5,28.5C 244.113,28.9443 245.28,29.9443 246,31.5C 246.497,34.146 246.664,36.8127 246.5,39.5C 245.022,43.285 243.855,47.285 243,51.5C 242.215,53.286 241.049,54.786 239.5,56C 233.621,57.4101 227.621,57.9101 221.5,57.5C 220.908,60.1272 220.575,62.7938 220.5,65.5C 215.5,65.5 210.5,65.5 205.5,65.5C 205.779,62.8822 206.446,60.3822 207.5,58C 198.84,57.5002 190.173,57.3336 181.5,57.5C 167.414,57.4554 153.08,57.4554 138.5,57.5C 132.167,57.5 125.833,57.5 119.5,57.5C 117.833,57.5 116.167,57.5 114.5,57.5C 114.663,59.8568 114.497,62.1902 114,64.5C 113.302,61.9963 112.469,59.663 111.5,57.5C 110.5,57.5 109.5,57.5 108.5,57.5C 92.1256,57.1641 75.7923,56.9974 59.5,57C 60,56.5 60.5,56 61,55.5C 61.9119,50.2734 63.0786,45.1067 64.5,40C 64.4301,39.2352 64.0967,38.7352 63.5,38.5C 68.6911,32.6861 69.8578,26.0194 67,18.5C 66.586,18.0426 66.086,17.7093 65.5,17.5C 64.3777,18.6302 63.0443,19.2969 61.5,19.5C 63.9708,14.225 66.3041,14.225 68.5,19.5 Z"/></g>
<g><path style="opacity:1" fill="#6abedc" d="M 100.5,30.5 C 109.418,30.1828 118.251,30.5161 127,31.5C 127.667,33.8333 127.667,36.1667 127,38.5C 125.639,44.1411 124.472,49.8078 123.5,55.5C 114.779,55.8044 106.112,55.4711 97.5,54.5C 95.5002,48.6749 96.8336,43.8416 101.5,40C 107.491,39.5005 113.491,39.3338 119.5,39.5C 119.5,38.5 119.5,37.5 119.5,36.5C 112.833,36.5 106.167,36.5 99.5,36.5C 99.3253,34.3792 99.6586,32.3792 100.5,30.5 Z"/></g>
<g><path style="opacity:1" fill="#6bc1e0" d="M 161.5,30.5 C 169.174,30.3336 176.841,30.5003 184.5,31C 185,31.5 185.5,32 186,32.5C 185.498,38.1918 184.498,43.8585 183,49.5C 182.654,51.8477 181.487,53.6811 179.5,55C 171.833,55.6667 164.167,55.6667 156.5,55C 156,54.5 155.5,54 155,53.5C 154.544,44.9757 156.711,37.309 161.5,30.5 Z"/></g>
<g><path style="opacity:1" fill="#0b141a" d="M 105.5,45.5 C 109.833,45.5 114.167,45.5 118.5,45.5C 118.67,46.8221 118.337,47.9887 117.5,49C 113.167,49.6667 108.833,49.6667 104.5,49C 104.167,48.6667 103.833,48.3333 103.5,48C 104.381,47.2917 105.047,46.4584 105.5,45.5 Z"/></g>
<g><path style="opacity:1" fill="#0d0910" d="M 165.5,36.5 C 178.494,33.3137 181.828,37.4804 175.5,49C 171.179,49.499 166.846,49.6657 162.5,49.5C 162.122,44.7664 163.122,40.433 165.5,36.5 Z"/></g>
<g><path style="opacity:1" fill="#9d314c" d="M 171.5,44.5 C 171.5,45.5 171.5,46.5 171.5,47.5C 168.612,48.0102 166.279,47.3435 164.5,45.5C 166.806,45.0074 169.139,44.6741 171.5,44.5 Z"/></g>
<g><path style="opacity:1" fill="#f3cdde" d="M 165.5,42.5 C 167.735,42.2053 169.735,42.5386 171.5,43.5C 171.5,43.8333 171.5,44.1667 171.5,44.5C 169.139,44.6741 166.806,45.0074 164.5,45.5C 164.557,44.391 164.89,43.391 165.5,42.5 Z"/></g>
<g><path style="opacity:1" fill="#6bbfdd" d="M 73.5,21.5 C 75.8333,21.5 78.1667,21.5 80.5,21.5C 80.0371,24.4824 79.7038,27.4824 79.5,30.5C 85.2289,30.2123 90.8955,30.5456 96.5,31.5C 96.8333,32.6667 97.1667,33.8333 97.5,35C 96.2425,41.8607 94.9092,48.694 93.5,55.5C 91.1667,55.5 88.8333,55.5 86.5,55.5C 88.1348,49.2639 89.1348,42.9305 89.5,36.5C 85.5,36.5 81.5,36.5 77.5,36.5C 76.0086,42.7989 74.6753,49.1323 73.5,55.5C 71.1667,55.5 68.8333,55.5 66.5,55.5C 68.8363,44.1565 71.1697,32.8232 73.5,21.5 Z"/></g>
<g><path style="opacity:1" fill="#e6e6e6" d="M 78.5,38.5 C 80.604,38.2011 82.604,38.5344 84.5,39.5C 83.1153,44.4237 82.1153,49.4237 81.5,54.5C 79.5,54.5 77.5,54.5 75.5,54.5C 76.8183,49.2266 77.8183,43.8933 78.5,38.5 Z"/></g>
<g><path style="opacity:1" fill="#6dc1df" d="M 218.5,30.5 C 226.507,30.3336 234.507,30.5003 242.5,31C 243.894,31.956 244.561,33.2894 244.5,35C 243.61,41.3312 242.11,47.4979 240,53.5C 239.25,54.1258 238.416,54.6258 237.5,55C 231.833,55.3333 226.167,55.6667 220.5,56C 219.446,58.3822 218.779,60.8822 218.5,63.5C 216.167,63.5 213.833,63.5 211.5,63.5C 214.216,52.5887 216.549,41.5887 218.5,30.5 Z"/></g>
<g><path style="opacity:1" fill="#0d090d" d="M 224.5,36.5 C 228.5,36.5 232.5,36.5 236.5,36.5C 238.062,48.2675 233.062,52.6009 221.5,49.5C 222.343,45.1266 223.343,40.7933 224.5,36.5 Z"/></g>
<g><path style="opacity:1" fill="#fbf1e5" d="M 229.5,45.5 C 229.209,46.6491 228.376,47.3158 227,47.5C 225.93,47.472 225.097,47.1386 224.5,46.5C 225.097,47.1386 225.93,47.472 227,47.5C 228.376,47.3158 229.209,46.6491 229.5,45.5 Z"/></g>
<g><path style="opacity:1" fill="#c2573e" d="M 229.5,45.5 C 227.958,46.3007 226.292,46.634 224.5,46.5C 225.092,43.8728 225.425,41.2062 225.5,38.5C 227.167,38.5 228.833,38.5 230.5,38.5C 230.802,41.0593 230.468,43.3926 229.5,45.5 Z"/></g>
<g><path style="opacity:1" fill="#a22e47" d="M 171.5,43.5 C 169.735,42.5386 167.735,42.2053 165.5,42.5C 165.33,41.1779 165.663,40.0113 166.5,39C 168.473,38.5045 170.473,38.3379 172.5,38.5C 172.784,40.4147 172.451,42.0813 171.5,43.5 Z"/></g>
<g><path style="opacity:1" fill="#6cc0de" d="M 191.5,30.5 C 199.174,30.3336 206.841,30.5003 214.5,31C 215,31.5 215.5,32 216,32.5C 215.34,38.4945 214.34,44.4945 213,50.5C 212.215,52.286 211.049,53.786 209.5,55C 201.833,55.6667 194.167,55.6667 186.5,55C 186,54.5 185.5,54 185,53.5C 185.182,47.0877 186.182,40.7543 188,34.5C 189.376,33.2949 190.542,31.9616 191.5,30.5 Z"/></g>
<g><path style="opacity:1" fill="#0a060d" d="M 195.5,36.5 C 199.514,36.3345 203.514,36.5012 207.5,37C 207.957,37.414 208.291,37.914 208.5,38.5C 207.687,42.0742 206.687,45.5742 205.5,49C 201.179,49.499 196.846,49.6657 192.5,49.5C 192.122,44.7664 193.122,40.433 195.5,36.5 Z"/></g>
<g><path style="opacity:1" fill="#b83945" d="M 195.5,38.5 C 197.833,38.5 200.167,38.5 202.5,38.5C 201.841,41.4552 201.508,44.4552 201.5,47.5C 199.167,47.5 196.833,47.5 194.5,47.5C 194.704,44.4824 195.037,41.4824 195.5,38.5 Z"/></g>
<g><path style="opacity:1" fill="#6bbfdd" d="M 152.5,21.5 C 154.924,21.1924 157.257,21.5258 159.5,22.5C 156.708,33.1239 154.041,43.7906 151.5,54.5C 143.472,55.8019 135.472,55.8019 127.5,54.5C 126.431,47.3267 127.264,40.3267 130,33.5C 130.833,32.6667 131.667,31.8333 132.5,31C 138.491,30.5005 144.491,30.3338 150.5,30.5C 150.7,27.3704 151.366,24.3704 152.5,21.5 Z"/></g>
<g><path style="opacity:1" fill="#09060d" d="M 136.5,36.5 C 140.5,36.5 144.5,36.5 148.5,36.5C 147.673,40.8072 147.007,45.1405 146.5,49.5C 142.233,49.797 138.066,49.4637 134,48.5C 133.996,44.3524 134.83,40.3524 136.5,36.5 Z"/></g>
<g><path style="opacity:1" fill="#9a385f" d="M 137.5,38.5 C 139.167,38.5 140.833,38.5 142.5,38.5C 141.841,41.4552 141.508,44.4552 141.5,47.5C 139.5,47.5 137.5,47.5 135.5,47.5C 136.01,44.4606 136.677,41.4606 137.5,38.5 Z"/></g>
<g><path style="opacity:1" fill="#753265" d="M 136.5,28.5 C 134.167,28.5 131.833,28.5 129.5,28.5C 130.694,27.7281 131.694,26.7281 132.5,25.5C 135.394,24.0392 138.394,23.2058 141.5,23C 139.627,24.7038 137.96,26.5372 136.5,28.5 Z"/></g>
<g><path style="opacity:1" fill="#838383" d="M 68.5,19.5 C 73.544,19.1725 78.544,19.5059 83.5,20.5C 83.3764,21.1067 83.0431,21.44 82.5,21.5C 77.8333,20.8333 73.1667,20.1667 68.5,19.5 Z"/></g>
<g><path style="opacity:1" fill="#edeced" d="M 111.5,57.5 C 112.469,59.663 113.302,61.9963 114,64.5C 114.497,62.1902 114.663,59.8568 114.5,57.5C 116.167,57.5 117.833,57.5 119.5,57.5C 123.729,60.2254 127.562,63.5587 131,67.5C 130.797,65.0627 129.963,62.7293 128.5,60.5C 131.74,60.0244 135.073,60.0244 138.5,60.5C 153.012,62.2977 167.346,61.2977 181.5,57.5C 190.173,57.3336 198.84,57.5002 207.5,58C 206.446,60.3822 205.779,62.8822 205.5,65.5C 206.806,66.4674 207.473,67.8007 207.5,69.5C 209.367,69.045 211.2,68.3784 213,67.5C 215.578,67.6824 216.078,68.6824 214.5,70.5C 183.167,70.5 151.833,70.5 120.5,70.5C 119.895,67.8733 119.395,65.2066 119,62.5C 117.431,63.9379 115.931,65.4379 114.5,67C 115.654,67.9138 115.487,68.7471 114,69.5C 112.798,67.3225 112.298,64.9892 112.5,62.5C 111.5,62.5 110.5,62.5 109.5,62.5C 110.167,60.8333 110.833,59.1667 111.5,57.5 Z"/></g>
<g><path style="opacity:1" fill="#7f2a69" d="M 119.5,57.5 C 125.833,57.5 132.167,57.5 138.5,57.5C 139.681,59.0672 141.347,59.9005 143.5,60C 141.866,60.4935 140.199,60.6602 138.5,60.5C 135.073,60.0244 131.74,60.0244 128.5,60.5C 129.963,62.7293 130.797,65.0627 131,67.5C 127.562,63.5587 123.729,60.2254 119.5,57.5 Z"/></g>
<g><path style="opacity:1" fill="#6c346d" d="M 108.5,57.5 C 109.5,57.5 110.5,57.5 111.5,57.5C 110.833,59.1667 110.167,60.8333 109.5,62.5C 108.425,63.5624 107.425,63.5624 106.5,62.5C 107.456,60.9246 108.123,59.258 108.5,57.5 Z"/></g>
<g><path style="opacity:1" fill="#ac385e" d="M 181.5,57.5 C 167.346,61.2977 153.012,62.2977 138.5,60.5C 140.199,60.6602 141.866,60.4935 143.5,60C 141.347,59.9005 139.681,59.0672 138.5,57.5C 153.08,57.4554 167.414,57.4554 181.5,57.5 Z"/></g>
</svg>
