<?xml version="1.0" encoding="UTF-8"?>
<!DOCTYPE svg PUBLIC "-//W3C//DTD SVG 1.1//EN" "http://www.w3.org/Graphics/SVG/1.1/DTD/svg11.dtd">
<svg xmlns="http://www.w3.org/2000/svg" version="1.1" width="376px" height="200px" style="shape-rendering:geometricPrecision; text-rendering:geometricPrecision; image-rendering:optimizeQuality; fill-rule:evenodd; clip-rule:evenodd" xmlns:xlink="http://www.w3.org/1999/xlink">
<g><path style="opacity:0.012" fill="#fe8000" d="M 293.5,0.5 C 293.5,0.166667 293.5,-0.166667 293.5,-0.5C 294.167,-0.5 294.833,-0.5 295.5,-0.5C 295.158,0.338246 294.492,0.67158 293.5,0.5 Z"/></g>
<g><path style="opacity:0.004" fill="#f042ff" d="M 301.5,0.5 C 301.5,0.166667 301.5,-0.166667 301.5,-0.5C 302.5,-0.5 303.5,-0.5 304.5,-0.5C 306.031,0.924541 305.698,1.59121 303.5,1.5C 303.158,0.661754 302.492,0.32842 301.5,0.5 Z"/></g>
<g><path style="opacity:0.016" fill="#be8000" d="M 293.5,0.5 C 292.833,1.16667 292.833,1.16667 293.5,0.5 Z"/></g>
<g><path style="opacity:0.008" fill="#fb62ff" d="M 292.5,1.5 C 292.5,1.83333 292.5,2.16667 292.5,2.5C 291.833,2.5 291.5,2.83333 291.5,3.5C 290.833,3.5 290.5,3.83333 290.5,4.5C 289.833,4.5 289.5,4.83333 289.5,5.5C 288.668,3.27518 289.668,1.94185 292.5,1.5 Z"/></g>
<g><path style="opacity:0.997" fill="#e26a1a" d="M 301.5,0.5 C 301.842,1.33825 302.508,1.67158 303.5,1.5C 307.18,5.18303 310.514,9.18303 313.5,13.5C 313.328,14.4916 313.662,15.1583 314.5,15.5C 315.11,17.4341 316.11,19.1007 317.5,20.5C 318.11,22.4341 319.11,24.1007 320.5,25.5C 320.427,27.0269 321.094,28.0269 322.5,28.5C 322.709,29.9217 323.209,31.255 324,32.5C 324.977,33.7736 325.811,33.7736 326.5,32.5C 328.099,32.7678 329.432,32.4345 330.5,31.5C 341.975,28.7564 353.475,26.0897 365,23.5C 369.823,23.3245 373.323,25.3245 375.5,29.5C 375.5,30.8333 375.5,32.1667 375.5,33.5C 374.463,34.9303 373.796,36.597 373.5,38.5C 371.457,39.5794 370.124,41.246 369.5,43.5C 368.833,43.5 368.5,43.8333 368.5,44.5C 367.833,44.5 367.5,44.8333 367.5,45.5C 365.457,46.5794 364.124,48.246 363.5,50.5C 362.833,50.5 362.5,50.8333 362.5,51.5C 360.457,52.5794 359.124,54.246 358.5,56.5C 357.833,56.5 357.5,56.8333 357.5,57.5C 356.833,57.5 356.5,57.8333 356.5,58.5C 354.457,59.5794 353.124,61.246 352.5,63.5C 351.833,63.5 351.5,63.8333 351.5,64.5C 350.833,64.5 350.5,64.8333 350.5,65.5C 348.328,66.6612 346.994,68.4945 346.5,71C 347.806,74.4496 349.473,77.6163 351.5,80.5C 352.742,84.6553 354.742,88.322 357.5,91.5C 357.328,92.4916 357.662,93.1583 358.5,93.5C 358.328,94.4916 358.662,95.1583 359.5,95.5C 359.328,96.4916 359.662,97.1583 360.5,97.5C 360.66,99.153 361.326,100.486 362.5,101.5C 363.81,108.192 361.81,113.526 356.5,117.5C 354.354,117.878 352.187,118.212 350,118.5C 345.133,117.574 340.299,116.574 335.5,115.5C 330.703,113.398 325.703,111.564 320.5,110C 319.915,108.698 319.249,107.531 318.5,106.5C 318.158,101.452 317.492,96.4516 316.5,91.5C 317.5,91.5 318.5,91.5 319.5,91.5C 321.515,92.9238 323.848,93.5905 326.5,93.5C 328.515,94.9238 330.848,95.5905 333.5,95.5C 335.515,96.9238 337.848,97.5905 340.5,97.5C 340.672,96.5084 340.338,95.8417 339.5,95.5C 338.921,92.6689 337.588,90.3356 335.5,88.5C 335.008,86.1815 334.008,84.1815 332.5,82.5C 330.259,78.0221 328.592,73.3555 327.5,68.5C 329.262,67.7377 330.262,66.4044 330.5,64.5C 331.167,64.5 331.5,64.1667 331.5,63.5C 332.167,63.5 332.5,63.1667 332.5,62.5C 333.167,62.5 333.5,62.1667 333.5,61.5C 335.262,60.7377 336.262,59.4044 336.5,57.5C 337.167,57.5 337.5,57.1667 337.5,56.5C 338.167,56.5 338.5,56.1667 338.5,55.5C 339.167,55.5 339.5,55.1667 339.5,54.5C 341.262,53.7377 342.262,52.4044 342.5,50.5C 343.167,50.5 343.5,50.1667 343.5,49.5C 344.167,49.5 344.5,49.1667 344.5,48.5C 346.339,47.4923 347.672,45.9923 348.5,44C 347.251,43.2599 346.251,43.4265 345.5,44.5C 344.209,44.2627 343.209,44.596 342.5,45.5C 338.521,45.7424 334.854,46.7424 331.5,48.5C 326.167,49.5 320.833,50.5 315.5,51.5C 315.573,49.9731 314.906,48.9731 313.5,48.5C 313.672,47.5084 313.338,46.8417 312.5,46.5C 312.25,44.326 311.25,42.6594 309.5,41.5C 309.672,40.5084 309.338,39.8417 308.5,39.5C 308.573,37.9731 307.906,36.9731 306.5,36.5C 306.573,34.9731 305.906,33.9731 304.5,33.5C 304.672,32.5084 304.338,31.8417 303.5,31.5C 303.573,29.9731 302.906,28.9731 301.5,28.5C 301.291,27.0783 300.791,25.745 300,24.5C 298.056,35.8281 296.223,47.1614 294.5,58.5C 288.216,59.928 282.216,61.928 276.5,64.5C 275.209,64.2627 274.209,64.596 273.5,65.5C 272.209,65.2627 271.209,65.596 270.5,66.5C 267.312,66.6178 264.312,67.4511 261.5,69C 265.653,71.0792 269.986,72.5792 274.5,73.5C 275.78,74.9313 277.447,75.5979 279.5,75.5C 281.435,76.81 283.435,78.1433 285.5,79.5C 283.147,81.5227 280.814,83.5227 278.5,85.5C 277.508,85.3284 276.842,85.6618 276.5,86.5C 274.973,86.427 273.973,87.0937 273.5,88.5C 271.072,90.0435 268.406,91.0435 265.5,91.5C 263.574,89.7073 261.241,88.7073 258.5,88.5C 255.912,86.3754 252.912,85.0421 249.5,84.5C 242.259,81.7014 237.592,76.5347 235.5,69C 236.726,63.6854 239.726,59.8521 244.5,57.5C 249.784,56.4054 254.784,54.7387 259.5,52.5C 266.167,51.2762 272.501,49.2762 278.5,46.5C 279.649,46.2089 280.316,45.3756 280.5,44C 282.387,33.8431 284.221,23.6765 286,13.5C 286.921,10.6642 288.088,7.99755 289.5,5.5C 290.167,5.5 290.5,5.16667 290.5,4.5C 291.167,4.5 291.5,4.16667 291.5,3.5C 292.167,3.5 292.5,3.16667 292.5,2.5C 295.308,1.07118 298.308,0.404517 301.5,0.5 Z M 301.5,28.5 C 299.087,38.2833 297.087,48.2833 295.5,58.5C 295.167,58.5 294.833,58.5 294.5,58.5C 296.223,47.1614 298.056,35.8281 300,24.5C 300.791,25.745 301.291,27.0783 301.5,28.5 Z M 320.5,25.5 C 321.167,25.8333 321.833,26.1667 322.5,26.5C 322.5,27.1667 322.5,27.8333 322.5,28.5C 321.094,28.0269 320.427,27.0269 320.5,25.5 Z M 301.5,28.5 C 302.906,28.9731 303.573,29.9731 303.5,31.5C 303.167,31.5 302.833,31.5 302.5,31.5C 301.89,30.609 301.557,29.609 301.5,28.5 Z M 322.5,28.5 C 323.833,29.8333 325.167,31.1667 326.5,32.5C 325.811,33.7736 324.977,33.7736 324,32.5C 323.209,31.255 322.709,29.9217 322.5,28.5 Z M 304.5,33.5 C 305.906,33.9731 306.573,34.9731 306.5,36.5C 305.094,36.0269 304.427,35.0269 304.5,33.5 Z M 306.5,36.5 C 307.906,36.9731 308.573,37.9731 308.5,39.5C 307.833,39.1667 307.167,38.8333 306.5,38.5C 306.5,37.8333 306.5,37.1667 306.5,36.5 Z M 309.5,41.5 C 311.25,42.6594 312.25,44.326 312.5,46.5C 311.833,46.1667 311.167,45.8333 310.5,45.5C 310.167,44.1667 309.833,42.8333 309.5,41.5 Z M 345.5,44.5 C 346.251,43.4265 347.251,43.2599 348.5,44C 347.672,45.9923 346.339,47.4923 344.5,48.5C 344.557,47.391 344.89,46.391 345.5,45.5C 346.833,45.1667 346.833,44.8333 345.5,44.5 Z M 342.5,45.5 C 342.5,45.8333 342.5,46.1667 342.5,46.5C 339.933,46.7215 337.599,47.3882 335.5,48.5C 334.167,48.5 332.833,48.5 331.5,48.5C 334.854,46.7424 338.521,45.7424 342.5,45.5 Z M 313.5,48.5 C 314.906,48.9731 315.573,49.9731 315.5,51.5C 314.094,51.0269 313.427,50.0269 313.5,48.5 Z M 331.5,48.5 C 330.5,49.1667 329.5,49.8333 328.5,50.5C 326.901,50.2322 325.568,50.5655 324.5,51.5C 321.518,51.9629 318.518,52.2962 315.5,52.5C 315.5,52.1667 315.5,51.8333 315.5,51.5C 320.833,50.5 326.167,49.5 331.5,48.5 Z M 341.5,50.5 C 341.833,50.5 342.167,50.5 342.5,50.5C 342.262,52.4044 341.262,53.7377 339.5,54.5C 339.5,53.8333 339.5,53.1667 339.5,52.5C 340.5,52.1667 341.167,51.5 341.5,50.5 Z M 336.5,57.5 C 336.262,59.4044 335.262,60.7377 333.5,61.5C 333.5,60.8333 333.5,60.1667 333.5,59.5C 334.5,58.8333 335.5,58.1667 336.5,57.5 Z M 294.5,58.5 C 294.5,58.8333 294.5,59.1667 294.5,59.5C 292.597,59.7959 290.93,60.4625 289.5,61.5C 286.215,61.9281 283.215,62.9281 280.5,64.5C 279.167,64.5 277.833,64.5 276.5,64.5C 282.216,61.928 288.216,59.928 294.5,58.5 Z M 330.5,64.5 C 330.262,66.4044 329.262,67.7377 327.5,68.5C 327.5,67.8333 327.5,67.1667 327.5,66.5C 328.5,65.8333 329.5,65.1667 330.5,64.5 Z M 270.5,66.5 C 268.723,67.6005 266.723,68.4338 264.5,69C 267.096,70.1356 269.763,70.969 272.5,71.5C 273.167,72.1667 273.833,72.8333 274.5,73.5C 269.986,72.5792 265.653,71.0792 261.5,69C 264.312,67.4511 267.312,66.6178 270.5,66.5 Z M 327.5,68.5 C 328.592,73.3555 330.259,78.0221 332.5,82.5C 331.833,82.1667 331.167,81.8333 330.5,81.5C 329.674,78.5152 328.341,75.8485 326.5,73.5C 326.167,72.1667 325.833,70.8333 325.5,69.5C 326.167,69.1667 326.833,68.8333 327.5,68.5 Z M 274.5,73.5 C 275.5,73.5 276.5,73.5 277.5,73.5C 278.167,74.1667 278.833,74.8333 279.5,75.5C 277.447,75.5979 275.78,74.9313 274.5,73.5 Z M 288.5,80.5 C 288.027,81.9063 287.027,82.573 285.5,82.5C 285.973,81.0937 286.973,80.427 288.5,80.5 Z M 276.5,86.5 C 276.842,85.6618 277.508,85.3284 278.5,85.5C 278.5,86.1667 278.833,86.5 279.5,86.5C 279.027,87.9063 278.027,88.573 276.5,88.5C 276.5,88.1667 276.5,87.8333 276.5,87.5C 277.833,87.1667 277.833,86.8333 276.5,86.5 Z M 276.5,86.5 C 276.5,86.8333 276.5,87.1667 276.5,87.5C 275.167,87.8333 275.167,88.1667 276.5,88.5C 276.158,89.3382 275.492,89.6716 274.5,89.5C 274.5,88.8333 274.167,88.5 273.5,88.5C 273.973,87.0937 274.973,86.427 276.5,86.5 Z M 335.5,88.5 C 337.588,90.3356 338.921,92.6689 339.5,95.5C 338.272,94.6935 337.272,93.6935 336.5,92.5C 336.167,91.1667 335.833,89.8333 335.5,88.5 Z M 319.5,91.5 C 320.833,91.5 322.167,91.5 323.5,91.5C 324.5,92.1667 325.5,92.8333 326.5,93.5C 323.848,93.5905 321.515,92.9238 319.5,91.5 Z M 326.5,93.5 C 327.833,93.5 329.167,93.5 330.5,93.5C 331.5,94.1667 332.5,94.8333 333.5,95.5C 330.848,95.5905 328.515,94.9238 326.5,93.5 Z M 333.5,95.5 C 335.741,95.9539 337.741,95.9539 339.5,95.5C 340.338,95.8417 340.672,96.5084 340.5,97.5C 337.848,97.5905 335.515,96.9238 333.5,95.5 Z"/></g>
<g><path style="opacity:0.008" fill="#f675fd" d="M 314.5,15.5 C 314.672,14.5084 314.338,13.8417 313.5,13.5C 313.393,11.6214 313.893,11.2881 315,12.5C 315.5,13.5 316,14.5 316.5,15.5C 316.03,16.463 315.363,16.463 314.5,15.5 Z"/></g>
<g><path style="opacity:0.012" fill="#f372fe" d="M 282.5,22.5 C 282.457,19.0901 282.957,15.7568 284,12.5C 284.448,16.0708 283.948,19.4041 282.5,22.5 Z"/></g>
<g><path style="opacity:0.004" fill="#ff41ff" d="M 317.5,20.5 C 317.747,18.0248 318.413,18.0248 319.5,20.5C 319.03,21.463 318.363,21.463 317.5,20.5 Z"/></g>
<g><path style="opacity:0.008" fill="#f770fe" d="M 370.5,22.5 C 365.463,22.4126 360.463,22.746 355.5,23.5C 358.564,22.0093 361.897,21.0093 365.5,20.5C 367.422,20.8008 369.088,21.4675 370.5,22.5 Z"/></g>
<g><path style="opacity:0.008" fill="#fe8000" d="M 370.5,22.5 C 371.492,22.3284 372.158,22.6618 372.5,23.5C 371.508,23.6716 370.842,23.3382 370.5,22.5 Z"/></g>
<g><path style="opacity:0.008" fill="#f279ff" d="M 351.5,24.5 C 352.568,23.5655 353.901,23.2322 355.5,23.5C 354.432,24.4345 353.099,24.7678 351.5,24.5 Z"/></g>
<g><path style="opacity:0.008" fill="#fe8000" d="M 372.5,23.5 C 373.167,23.5 373.5,23.8333 373.5,24.5C 373.167,24.1667 372.833,23.8333 372.5,23.5 Z"/></g>
<g><path style="opacity:0.008" fill="#fe8000" d="M 373.5,24.5 C 374.167,24.5 374.5,24.8333 374.5,25.5C 374.167,25.1667 373.833,24.8333 373.5,24.5 Z"/></g>
<g><path style="opacity:0.02" fill="#ec8321" d="M 322.5,26.5 C 321.833,26.1667 321.167,25.8333 320.5,25.5C 321.301,23.2071 321.968,23.5404 322.5,26.5 Z"/></g>
<g><path style="opacity:0.013" fill="#ff87fe" d="M 351.5,24.5 C 349.485,25.9238 347.152,26.5905 344.5,26.5C 346.515,25.0762 348.848,24.4095 351.5,24.5 Z"/></g>
<g><path style="opacity:0.008" fill="#fe8000" d="M 374.5,25.5 C 374.833,25.5 375.167,25.5 375.5,25.5C 375.5,25.8333 375.5,26.1667 375.5,26.5C 375.167,26.1667 374.833,25.8333 374.5,25.5 Z"/></g>
<g><path style="opacity:0.016" fill="#dc66ff" d="M 340.5,27.5 C 341.568,26.5655 342.901,26.2322 344.5,26.5C 343.432,27.4345 342.099,27.7678 340.5,27.5 Z"/></g>
<g><path style="opacity:0.02" fill="#cf6820" d="M 337.5,28.5 C 338.209,27.596 339.209,27.2627 340.5,27.5C 339.791,28.404 338.791,28.7373 337.5,28.5 Z"/></g>
<g><path style="opacity:0.016" fill="#db7c12" d="M 333.5,29.5 C 334.568,28.5655 335.901,28.2322 337.5,28.5C 336.432,29.4345 335.099,29.7678 333.5,29.5 Z"/></g>
<g><path style="opacity:0.02" fill="#c8570c" d="M 333.5,29.5 C 332.5,30.1667 331.5,30.8333 330.5,31.5C 329.127,31.6567 327.793,31.49 326.5,31C 328.74,30.023 331.073,29.523 333.5,29.5 Z"/></g>
<g><path style="opacity:0.012" fill="#da7602" d="M 282.5,22.5 C 281.594,30.6033 280.261,38.6033 278.5,46.5C 273.461,46.5489 273.295,45.8823 278,44.5C 278.98,36.9264 280.48,29.5931 282.5,22.5 Z"/></g>
<g><path style="opacity:0.004" fill="#ff51ff" d="M 375.5,37.5 C 375.5,38.1667 375.5,38.8333 375.5,39.5C 374.075,41.0311 373.409,40.6977 373.5,38.5C 374.167,38.1667 374.833,37.8333 375.5,37.5 Z"/></g>
<g><path style="opacity:0.008" fill="#e77800" d="M 301.5,28.5 C 301.557,29.609 301.89,30.609 302.5,31.5C 300.273,40.5236 297.94,49.5236 295.5,58.5C 297.087,48.2833 299.087,38.2833 301.5,28.5 Z"/></g>
<g><path style="opacity:0.004" fill="#ff41ff" d="M 306.5,38.5 C 307.167,38.8333 307.833,39.1667 308.5,39.5C 307.699,41.7929 307.032,41.4596 306.5,38.5 Z"/></g>
<g><path style="opacity:0.004" fill="#ff52ff" d="M 369.5,43.5 C 370.559,45.0699 370.059,46.4032 368,47.5C 367.536,46.9056 367.369,46.2389 367.5,45.5C 368.167,45.5 368.5,45.1667 368.5,44.5C 369.167,44.5 369.5,44.1667 369.5,43.5 Z"/></g>
<g><path style="opacity:0.012" fill="#d276fd" d="M 310.5,45.5 C 311.167,45.8333 311.833,46.1667 312.5,46.5C 311.699,48.7929 311.032,48.4596 310.5,45.5 Z"/></g>
<g><path style="opacity:0.012" fill="#f25f00" d="M 342.5,46.5 C 342.5,46.1667 342.5,45.8333 342.5,45.5C 343.5,45.5 344.5,45.5 345.5,45.5C 344.89,46.391 344.557,47.391 344.5,48.5C 343.833,48.5 343.5,48.8333 343.5,49.5C 342.833,49.5 342.5,49.8333 342.5,50.5C 342.167,50.5 341.833,50.5 341.5,50.5C 341.511,48.9826 342.177,47.8159 343.5,47C 343.272,46.6012 342.938,46.4346 342.5,46.5 Z"/></g>
<g><path style="opacity:0.02" fill="#ec6513" d="M 331.5,48.5 C 332.833,48.5 334.167,48.5 335.5,48.5C 333.485,49.9238 331.152,50.5905 328.5,50.5C 329.5,49.8333 330.5,49.1667 331.5,48.5 Z"/></g>
<g><path style="opacity:0.004" fill="#f15efe" d="M 363.5,50.5 C 364.713,51.4971 364.546,52.4971 363,53.5C 362.536,52.9056 362.369,52.2389 362.5,51.5C 363.167,51.5 363.5,51.1667 363.5,50.5 Z"/></g>
<g><path style="opacity:0.02" fill="#de5eff" d="M 324.5,51.5 C 321.627,53.4815 318.627,53.8149 315.5,52.5C 318.518,52.2962 321.518,51.9629 324.5,51.5 Z"/></g>
<g><path style="opacity:0.008" fill="#f174fe" d="M 259.5,52.5 C 255.12,53.2934 250.786,54.2934 246.5,55.5C 252.389,52.2762 258.723,50.4429 265.5,50C 263.277,50.5662 261.277,51.3995 259.5,52.5 Z"/></g>
<g><path style="opacity:0.012" fill="#ff8afc" d="M 339.5,52.5 C 339.5,53.1667 339.5,53.8333 339.5,54.5C 338.833,54.5 338.5,54.8333 338.5,55.5C 337.833,55.5 337.5,55.8333 337.5,56.5C 336.527,54.7084 337.194,53.375 339.5,52.5 Z"/></g>
<g><path style="opacity:0.008" fill="#cc6ffe" d="M 246.5,55.5 C 245.833,56.1667 245.167,56.8333 244.5,57.5C 243.761,57.631 243.094,57.4643 242.5,57C 243.563,55.8118 244.897,55.3118 246.5,55.5 Z"/></g>
<g><path style="opacity:0.008" fill="#eb5fff" d="M 358.5,56.5 C 359.559,58.0699 359.059,59.4032 357,60.5C 356.536,59.9056 356.369,59.2389 356.5,58.5C 357.167,58.5 357.5,58.1667 357.5,57.5C 358.167,57.5 358.5,57.1667 358.5,56.5 Z"/></g>
<g><path style="opacity:0.012" fill="#c35106" d="M 294.5,59.5 C 293.365,61.2132 291.698,61.8799 289.5,61.5C 290.93,60.4625 292.597,59.7959 294.5,59.5 Z"/></g>
<g><path style="opacity:0.012" fill="#fb7dfd" d="M 333.5,59.5 C 333.5,60.1667 333.5,60.8333 333.5,61.5C 332.833,61.5 332.5,61.8333 332.5,62.5C 331.833,62.5 331.5,62.8333 331.5,63.5C 330.527,61.7084 331.194,60.375 333.5,59.5 Z"/></g>
<g><path style="opacity:0.004" fill="#ff52ff" d="M 352.5,63.5 C 353.559,65.0699 353.059,66.4032 351,67.5C 350.536,66.9056 350.369,66.2389 350.5,65.5C 351.167,65.5 351.5,65.1667 351.5,64.5C 352.167,64.5 352.5,64.1667 352.5,63.5 Z"/></g>
<g><path style="opacity:0.007" fill="#000000" d="M 94.5,68.5 C 95.9464,67.3871 97.6131,67.2204 99.5,68C 97.8659,68.4935 96.1992,68.6602 94.5,68.5 Z"/></g>
<g><path style="opacity:0.007" fill="#141019" d="M 115.5,68.5 C 116.793,67.8418 118.293,67.5085 120,67.5C 122.051,67.4229 123.884,67.9229 125.5,69C 122.254,68.6835 118.92,68.5168 115.5,68.5 Z"/></g>
<g><path style="opacity:0.006" fill="#000000" d="M 141.5,67.5 C 149.176,67.4561 149.342,68.1228 142,69.5C 141.536,68.9056 141.369,68.2389 141.5,67.5 Z"/></g>
<g><path style="opacity:0.007" fill="#000000" d="M 185.5,68.5 C 186.601,67.4017 187.934,67.235 189.5,68C 188.207,68.49 186.873,68.6567 185.5,68.5 Z"/></g>
<g><path style="opacity:0.006" fill="#000000" d="M 197.5,68.5 C 198.946,67.3871 200.613,67.2204 202.5,68C 200.866,68.4935 199.199,68.6602 197.5,68.5 Z"/></g>
<g><path style="opacity:0.007" fill="#000000" d="M 213.5,68.5 C 216.976,67.3567 220.642,67.1901 224.5,68C 220.848,68.4986 217.182,68.6653 213.5,68.5 Z"/></g>
<g><path style="opacity:0.004" fill="#ff4dff" d="M 327.5,66.5 C 327.5,67.1667 327.5,67.8333 327.5,68.5C 326.833,68.8333 326.167,69.1667 325.5,69.5C 325.427,67.9731 326.094,66.9731 327.5,66.5 Z"/></g>
<g><path style="opacity:0.004" fill="#000000" d="M 94.5,68.5 C 93.8333,69.1667 93.8333,69.1667 94.5,68.5 Z"/></g>
<g><path style="opacity:0.008" fill="#3f3f3f" d="M 165.5,67.5 C 168.722,67.1081 171.722,67.6081 174.5,69C 170.698,67.9649 167.031,68.4649 163.5,70.5C 163.167,70.3333 162.833,70.1667 162.5,70C 163.571,69.1482 164.571,68.3149 165.5,67.5 Z"/></g>
<g><path style="opacity:0.008" fill="#df6e0d" d="M 276.5,64.5 C 277.833,64.5 279.167,64.5 280.5,64.5C 276.715,66.2659 272.715,67.7659 268.5,69C 270.066,69.6082 271.4,70.4415 272.5,71.5C 269.763,70.969 267.096,70.1356 264.5,69C 266.723,68.4338 268.723,67.6005 270.5,66.5C 271.791,66.7373 272.791,66.404 273.5,65.5C 274.791,65.7373 275.791,65.404 276.5,64.5 Z"/></g>
<g><path style="opacity:0.766" fill="#414042" d="M 90.5,90.5 C 88.2075,90.2436 86.0408,90.5769 84,91.5C 84.1503,89.4944 84.6503,87.4944 85.5,85.5C 88.6453,81.2219 91.3119,76.5552 93.5,71.5C 95.7427,70.5258 98.076,70.1924 100.5,70.5C 101.241,77.2067 102.241,83.8734 103.5,90.5C 101.5,90.5 99.5,90.5 97.5,90.5C 97.5,89.1667 97.5,87.8333 97.5,86.5C 95.4727,86.3379 93.4727,86.5045 91.5,87C 90.6634,88.0113 90.33,89.1779 90.5,90.5 Z M 94.5,79.5 C 95.2891,79.7828 95.9558,80.2828 96.5,81C 95.184,81.5281 94.5173,81.0281 94.5,79.5 Z"/></g>
<g><path style="opacity:0.761" fill="#414042" d="M 125.5,82.5 C 123.199,83.0604 120.866,83.5604 118.5,84C 117.577,86.0408 117.244,88.2075 117.5,90.5C 115.5,90.5 113.5,90.5 111.5,90.5C 112.5,83.8333 113.5,77.1667 114.5,70.5C 126.152,67.8058 129.819,71.8058 125.5,82.5 Z M 121.5,77.5 C 117.67,78.7924 117.504,78.1257 121,75.5C 122.718,76.0311 122.885,76.6977 121.5,77.5 Z"/></g>
<g><path style="opacity:0.747" fill="#403f41" d="M 131.5,88.5 C 133.56,85.7598 135.226,82.7598 136.5,79.5C 137.338,79.1583 137.672,78.4916 137.5,77.5C 138.338,77.1583 138.672,76.4916 138.5,75.5C 139.338,75.1583 139.672,74.4916 139.5,73.5C 140.338,73.1583 140.672,72.4916 140.5,71.5C 143.316,69.835 145.816,70.1683 148,72.5C 148.849,78.2435 150.015,83.9102 151.5,89.5C 149.579,90.641 147.579,90.8077 145.5,90C 144.663,88.9887 144.33,87.8221 144.5,86.5C 141.136,85.7893 138.803,86.956 137.5,90C 135.567,90.2511 133.734,90.7511 132,91.5C 131.517,90.552 131.351,89.552 131.5,88.5 Z"/></g>
<g><path style="opacity:0.004" fill="#000000" d="M 149.5,71.5 C 148.833,70.1667 148.833,70.1667 149.5,71.5 Z"/></g>
<g><path style="opacity:0.715" fill="#424142" d="M 174.5,76.5 C 169.068,74.0519 165.401,75.5519 163.5,81C 163.808,82.4595 164.475,83.6261 165.5,84.5C 167.688,85.6227 170.021,85.6227 172.5,84.5C 173.474,89.0268 171.641,91.3602 167,91.5C 165.56,90.8524 164.06,90.5191 162.5,90.5C 161.5,88.8333 160.167,87.5 158.5,86.5C 157.622,74.7104 162.956,69.3771 174.5,70.5C 174.5,72.5 174.5,74.5 174.5,76.5 Z"/></g>
<g><path style="opacity:0.731" fill="#424042" d="M 181.5,90.5 C 182.716,83.868 183.716,77.2013 184.5,70.5C 186.604,70.2011 188.604,70.5344 190.5,71.5C 189.652,73.4086 189.318,75.4086 189.5,77.5C 191.833,77.5 194.167,77.5 196.5,77.5C 195.094,72.0687 197.094,69.7353 202.5,70.5C 201.5,77.1653 200.5,83.832 199.5,90.5C 197.396,90.7989 195.396,90.4656 193.5,89.5C 194.348,87.5914 194.682,85.5914 194.5,83.5C 192.167,83.5 189.833,83.5 187.5,83.5C 187.5,85.8333 187.5,88.1667 187.5,90.5C 185.5,90.5 183.5,90.5 181.5,90.5 Z"/></g>
<g><path style="opacity:0.713" fill="#414042" d="M 222.5,85.5 C 222.5,87.1667 222.5,88.8333 222.5,90.5C 218.116,90.8256 213.783,90.4922 209.5,89.5C 210.833,83.5 212.167,77.5 213.5,71.5C 217.445,70.5091 221.445,70.1758 225.5,70.5C 225.579,71.9305 225.246,73.2638 224.5,74.5C 222.167,75.1667 219.833,75.8333 217.5,76.5C 219.396,77.4656 221.396,77.7989 223.5,77.5C 223.704,82.1477 221.371,84.481 216.5,84.5C 218.396,85.4656 220.396,85.7989 222.5,85.5 Z"/></g>
<g><path style="opacity:0.016" fill="#2a2a2a" d="M 102.5,75.5 C 101.387,74.0536 101.22,72.3869 102,70.5C 102.494,72.1341 102.66,73.8008 102.5,75.5 Z"/></g>
<g><path style="opacity:0.016" fill="#545454" d="M 112.5,73.5 C 112.351,72.448 112.517,71.448 113,70.5C 113.74,71.7494 113.573,72.7494 112.5,73.5 Z"/></g>
<g><path style="opacity:0.02" fill="#363636" d="M 226.5,70.5 C 227.598,71.6009 227.765,72.9343 227,74.5C 226.51,73.2068 226.343,71.8734 226.5,70.5 Z"/></g>
<g><path style="opacity:0.004" fill="#f84bff" d="M 272.5,71.5 C 274.553,71.4021 276.22,72.0687 277.5,73.5C 276.5,73.5 275.5,73.5 274.5,73.5C 273.833,72.8333 273.167,72.1667 272.5,71.5 Z"/></g>
<g><path style="opacity:0.008" fill="#e47307" d="M 325.5,69.5 C 325.833,70.8333 326.167,72.1667 326.5,73.5C 324.481,72.4617 324.147,71.1284 325.5,69.5 Z"/></g>
<g><path style="opacity:0.006" fill="#1f1f1f" d="M 191.5,74.5 C 191.343,73.1266 191.51,71.7932 192,70.5C 192.765,72.0657 192.598,73.3991 191.5,74.5 Z"/></g>
<g><path style="opacity:0.005" fill="#202020" d="M 128.5,72.5 C 130.968,74.8415 131.134,77.5082 129,80.5C 129.612,77.8064 129.445,75.1397 128.5,72.5 Z"/></g>
<g><path style="opacity:0.012" fill="#323232" d="M 175.5,76.5 C 175.338,74.4727 175.505,72.4727 176,70.5C 177.888,72.6701 177.721,74.6701 175.5,76.5 Z"/></g>
<g><path style="opacity:0.012" fill="#383838" d="M 202.5,83.5 C 202.481,78.9377 203.314,74.6043 205,70.5C 204.806,75.0016 203.973,79.335 202.5,83.5 Z"/></g>
<g><path style="opacity:0.02" fill="#363636" d="M 210.5,76.5 C 210.338,74.4727 210.505,72.4727 211,70.5C 211.789,72.7116 211.622,74.7116 210.5,76.5 Z"/></g>
<g><path style="opacity:0.008" fill="#eb72ff" d="M 277.5,73.5 C 279.308,73.4914 280.975,73.9914 282.5,75C 281.552,75.4828 280.552,75.6495 279.5,75.5C 278.833,74.8333 278.167,74.1667 277.5,73.5 Z"/></g>
<g><path style="opacity:0.031" fill="#3c363f" d="M 191.5,74.5 C 192.209,75.404 193.209,75.7373 194.5,75.5C 194.34,73.8008 194.506,72.1341 195,70.5C 195.495,72.4727 195.662,74.4727 195.5,76.5C 193.712,76.7852 192.045,76.4519 190.5,75.5C 190.624,74.8933 190.957,74.56 191.5,74.5 Z"/></g>
<g><path style="opacity:0.004" fill="#2f2f2f" d="M 56.5,78.5 C 55.7375,77.7321 54.7375,77.2321 53.5,77C 55.6354,76.3653 57.6354,76.6986 59.5,78C 58.552,78.4828 57.552,78.6495 56.5,78.5 Z"/></g>
<g><path style="opacity:0.006" fill="#1a1a1a" d="M 140.5,71.5 C 139.662,71.8417 139.328,72.5084 139.5,73.5C 138.662,73.8417 138.328,74.5084 138.5,75.5C 137.662,75.8417 137.328,76.5084 137.5,77.5C 136.662,77.8417 136.328,78.5084 136.5,79.5C 134.895,80.9687 134.395,80.6354 135,78.5C 136.167,76.1667 137.333,73.8333 138.5,71.5C 139.257,70.2267 139.923,70.2267 140.5,71.5 Z"/></g>
<g><path style="opacity:0.016" fill="#3d3d3d" d="M 167.5,77.5 C 168.833,76.1667 170.167,76.1667 171.5,77.5C 170.167,77.5 168.833,77.5 167.5,77.5 Z"/></g>
<g><path style="opacity:0.004" fill="#000000" d="M 174.5,76.5 C 174.833,76.5 175.167,76.5 175.5,76.5C 175.315,77.1701 174.981,77.1701 174.5,76.5 Z"/></g>
<g><path style="opacity:0.936" fill="#414042" d="M 56.5,78.5 C 58.1815,80.0075 60.1815,81.0075 62.5,81.5C 62.5,82.1667 62.8333,82.5 63.5,82.5C 64.8333,84.5 66.5,86.1667 68.5,87.5C 68.5,88.1667 68.8333,88.5 69.5,88.5C 70.2371,90.3046 71.2371,91.9713 72.5,93.5C 71.2299,94.2876 70.2299,95.2876 69.5,96.5C 68.8333,96.5 68.5,96.8333 68.5,97.5C 66.9731,97.427 65.9731,98.0937 65.5,99.5C 64.8333,99.5 64.5,99.8333 64.5,100.5C 62.9731,100.427 61.9731,101.094 61.5,102.5C 60.8333,102.5 60.5,102.833 60.5,103.5C 58.9731,103.427 57.9731,104.094 57.5,105.5C 55.4265,104.7 53.7598,103.367 52.5,101.5C 52.5,100.833 52.1667,100.5 51.5,100.5C 51.5,99.1667 50.8333,98.5 49.5,98.5C 49.1583,97.6618 48.4916,97.3284 47.5,97.5C 45.1667,96.1667 42.8333,96.1667 40.5,97.5C 39.5084,97.3284 38.8417,97.6618 38.5,98.5C 37.8333,98.5 37.5,98.8333 37.5,99.5C 36.8333,99.5 36.5,99.8333 36.5,100.5C 35.1667,102.167 35.1667,103.833 36.5,105.5C 36.5,106.167 36.8333,106.5 37.5,106.5C 37.427,108.027 38.0937,109.027 39.5,109.5C 39.5,110.167 39.8333,110.5 40.5,110.5C 40.5,111.167 40.8333,111.5 41.5,111.5C 44.4578,116.126 48.1245,120.126 52.5,123.5C 52.5,124.167 52.8333,124.5 53.5,124.5C 53.5,125.167 53.8333,125.5 54.5,125.5C 54.5,126.167 54.8333,126.5 55.5,126.5C 63.6263,137.132 64.6263,148.466 58.5,160.5C 57.0937,160.973 56.427,161.973 56.5,163.5C 55.8333,163.5 55.5,163.833 55.5,164.5C 53.1667,166.167 51.1667,168.167 49.5,170.5C 48.8333,170.5 48.5,170.833 48.5,171.5C 47.5084,171.328 46.8417,171.662 46.5,172.5C 44.1815,172.992 42.1815,173.992 40.5,175.5C 23.0944,181.256 10.0944,176.256 1.5,160.5C 1.57918,159.07 1.24585,157.736 0.5,156.5C 4.40053,154.392 8.0672,152.059 11.5,149.5C 12.4916,149.672 13.1583,149.338 13.5,148.5C 14.4916,148.672 15.1583,148.338 15.5,147.5C 16.5832,147.461 17.5832,147.127 18.5,146.5C 19.6036,149.05 20.937,151.383 22.5,153.5C 22.9156,155.752 24.249,157.252 26.5,158C 29.8333,158.667 33.1667,158.667 36.5,158C 37.9423,157.623 38.9423,156.79 39.5,155.5C 40.1667,155.5 40.5,155.167 40.5,154.5C 41.1667,154.5 41.5,154.167 41.5,153.5C 44.017,150.539 44.017,147.539 41.5,144.5C 41.5,143.833 41.1667,143.5 40.5,143.5C 40.573,141.973 39.9063,140.973 38.5,140.5C 38.5,139.833 38.1667,139.5 37.5,139.5C 37.5,138.833 37.1667,138.5 36.5,138.5C 36.5,137.833 36.1667,137.5 35.5,137.5C 33.883,134.216 31.5497,131.549 28.5,129.5C 28.5,128.833 28.1667,128.5 27.5,128.5C 27.5,127.833 27.1667,127.5 26.5,127.5C 26.5,126.833 26.1667,126.5 25.5,126.5C 24.2993,124.091 22.6326,122.091 20.5,120.5C 20.5,119.833 20.1667,119.5 19.5,119.5C 19.6716,118.508 19.3382,117.842 18.5,117.5C 15.6234,109.357 15.9568,101.357 19.5,93.5C 20.1667,93.5 20.5,93.1667 20.5,92.5C 21.9063,92.0269 22.573,91.0269 22.5,89.5C 23.1667,89.5 23.5,89.1667 23.5,88.5C 24.1667,88.5 24.5,88.1667 24.5,87.5C 25.1667,87.5 25.5,87.1667 25.5,86.5C 26.1667,86.5 26.5,86.1667 26.5,85.5C 27.1667,85.5 27.5,85.1667 27.5,84.5C 29.0269,84.573 30.0269,83.9063 30.5,82.5C 38.6781,78.1991 47.3448,76.8657 56.5,78.5 Z M 49.5,99.5 C 49.5,99.1667 49.5,98.8333 49.5,98.5C 50.8333,98.5 51.5,99.1667 51.5,100.5C 50.8333,100.167 50.1667,99.8333 49.5,99.5 Z M 22.5,153.5 C 27.0939,157.866 32.0939,158.532 37.5,155.5C 38.1667,155.5 38.8333,155.5 39.5,155.5C 38.9423,156.79 37.9423,157.623 36.5,158C 33.1667,158.667 29.8333,158.667 26.5,158C 24.249,157.252 22.9156,155.752 22.5,153.5 Z"/></g>
<g><path style="opacity:0.02" fill="#3a3a3a" d="M 102.5,75.5 C 103.451,76.9187 103.784,78.5853 103.5,80.5C 102.549,79.0813 102.216,77.4147 102.5,75.5 Z"/></g>
<g><path style="opacity:0.02" fill="#323332" d="M 167.5,77.5 C 166.833,78.1667 166.833,78.1667 167.5,77.5 Z"/></g>
<g><path style="opacity:0.012" fill="#393939" d="M 171.5,77.5 C 172.239,77.369 172.906,77.5357 173.5,78C 172.563,78.6917 171.897,78.525 171.5,77.5 Z"/></g>
<g><path style="opacity:0.02" fill="#3d3d3d" d="M 149.5,71.5 C 151.246,76.5719 152.246,81.9053 152.5,87.5C 150.754,82.4281 149.754,77.0947 149.5,71.5 Z"/></g>
<g><path style="opacity:0.012" fill="#3d3d3d" d="M 181.5,79.5 C 181.351,76.3926 181.851,73.3926 183,70.5C 183.32,73.7201 182.82,76.7201 181.5,79.5 Z"/></g>
<g><path style="opacity:0.02" fill="#302d33" d="M 210.5,76.5 C 210.57,80.4248 209.903,84.0915 208.5,87.5C 208.43,83.5752 209.097,79.9085 210.5,76.5 Z"/></g>
<g><path style="opacity:0.016" fill="#353535" d="M 224.5,77.5 C 225.613,78.9464 225.78,80.6131 225,82.5C 224.506,80.8659 224.34,79.1992 224.5,77.5 Z"/></g>
<g><path style="opacity:0.012" fill="#f56bff" d="M 351.5,80.5 C 351.747,78.0248 352.413,78.0248 353.5,80.5C 353.03,81.463 352.363,81.463 351.5,80.5 Z"/></g>
<g><path style="opacity:0.012" fill="#423b41" d="M 158.5,86.5 C 157.752,88.7349 156.919,88.4016 156,85.5C 155.333,83.1667 155.333,80.8333 156,78.5C 156.098,81.5224 156.932,84.1891 158.5,86.5 Z"/></g>
<g><path style="opacity:0.006" fill="#282828" d="M 62.5,81.5 C 63.4971,80.2875 64.4971,80.4542 65.5,82C 64.9056,82.4643 64.2389,82.631 63.5,82.5C 62.8333,82.5 62.5,82.1667 62.5,81.5 Z"/></g>
<g><path style="opacity:0.016" fill="#404040" d="M 112.5,73.5 C 111.993,79.2041 111.16,84.8707 110,90.5C 109.627,84.557 110.46,78.8903 112.5,73.5 Z"/></g>
<g><path style="opacity:0.925" fill="#403f41" d="M 288.5,80.5 C 289.725,81.1522 290.392,82.3189 290.5,84C 288.705,96.1922 287.205,108.359 286,120.5C 286.662,119.016 287.496,117.683 288.5,116.5C 289.167,116.5 289.5,116.167 289.5,115.5C 290.167,115.5 290.5,115.167 290.5,114.5C 291.167,114.5 291.5,114.167 291.5,113.5C 293.587,112.415 294.92,110.749 295.5,108.5C 296.167,108.5 296.5,108.167 296.5,107.5C 297.167,107.5 297.5,107.167 297.5,106.5C 298.167,106.5 298.5,106.167 298.5,105.5C 299.167,105.5 299.5,105.167 299.5,104.5C 301.914,103.089 303.581,101.089 304.5,98.5C 305.5,98.1667 306.167,97.5 306.5,96.5C 307.167,96.5 307.5,96.1667 307.5,95.5C 308.167,95.5 308.5,95.1667 308.5,94.5C 309.167,94.5 309.5,94.1667 309.5,93.5C 310.906,93.0269 311.573,92.0269 311.5,90.5C 312.75,90.5774 313.583,91.244 314,92.5C 315.052,98.1443 315.885,103.811 316.5,109.5C 315.833,109.5 315.5,109.833 315.5,110.5C 314.833,110.5 314.5,110.833 314.5,111.5C 313.833,111.5 313.5,111.833 313.5,112.5C 312.833,112.5 312.5,112.833 312.5,113.5C 311.833,113.5 311.5,113.833 311.5,114.5C 310.833,114.5 310.5,114.833 310.5,115.5C 309.833,115.5 309.5,115.833 309.5,116.5C 308.833,116.5 308.5,116.833 308.5,117.5C 307.833,117.5 307.5,117.833 307.5,118.5C 306.833,118.5 306.5,118.833 306.5,119.5C 305.833,119.5 305.5,119.833 305.5,120.5C 304.833,120.5 304.5,120.833 304.5,121.5C 300.835,123.629 298.668,126.629 298,130.5C 298.383,131.056 298.883,131.389 299.5,131.5C 299.427,133.027 300.094,134.027 301.5,134.5C 301.5,135.167 301.833,135.5 302.5,135.5C 303.34,137.853 304.674,139.853 306.5,141.5C 306.5,142.167 306.833,142.5 307.5,142.5C 307.427,144.027 308.094,145.027 309.5,145.5C 310.786,148.117 312.453,150.45 314.5,152.5C 314.427,154.027 315.094,155.027 316.5,155.5C 316.5,156.167 316.833,156.5 317.5,156.5C 318.34,158.853 319.674,160.853 321.5,162.5C 321.5,163.167 321.833,163.5 322.5,163.5C 322.427,165.027 323.094,166.027 324.5,166.5C 324.427,168.027 325.094,169.027 326.5,169.5C 326.5,170.167 326.833,170.5 327.5,170.5C 327.703,172.044 328.37,173.378 329.5,174.5C 321.806,175.767 314.14,175.767 306.5,174.5C 306.573,172.973 305.906,171.973 304.5,171.5C 304.573,169.973 303.906,168.973 302.5,168.5C 302.573,166.973 301.906,165.973 300.5,165.5C 300.573,163.973 299.906,162.973 298.5,162.5C 298.573,160.973 297.906,159.973 296.5,159.5C 296.573,157.973 295.906,156.973 294.5,156.5C 294.573,154.973 293.906,153.973 292.5,153.5C 292.672,152.508 292.338,151.842 291.5,151.5C 291.5,150.833 291.167,150.5 290.5,150.5C 290.672,149.508 290.338,148.842 289.5,148.5C 289.5,147.833 289.167,147.5 288.5,147.5C 288.573,145.973 287.906,144.973 286.5,144.5C 286.672,143.508 286.338,142.842 285.5,142.5C 285.5,141.833 285.167,141.5 284.5,141.5C 284.607,139.621 284.107,139.288 283,140.5C 281.66,151.888 279.993,163.221 278,174.5C 271.924,175.476 265.758,175.81 259.5,175.5C 262.998,148.847 266.498,122.18 270,95.5C 270.639,92.7879 272.139,90.7879 274.5,89.5C 275.492,89.6716 276.158,89.3382 276.5,88.5C 278.027,88.573 279.027,87.9063 279.5,86.5C 281.853,85.6597 283.853,84.3264 285.5,82.5C 287.027,82.573 288.027,81.9063 288.5,80.5 Z M 311.5,90.5 C 311.573,92.0269 310.906,93.0269 309.5,93.5C 309.5,92.8333 309.5,92.1667 309.5,91.5C 310.167,91.1667 310.833,90.8333 311.5,90.5 Z M 304.5,98.5 C 303.581,101.089 301.914,103.089 299.5,104.5C 299.5,103.833 299.5,103.167 299.5,102.5C 301.167,101.167 302.833,99.8333 304.5,98.5 Z M 295.5,108.5 C 294.92,110.749 293.587,112.415 291.5,113.5C 291.5,112.833 291.5,112.167 291.5,111.5C 292.833,110.5 294.167,109.5 295.5,108.5 Z M 286.5,144.5 C 287.906,144.973 288.573,145.973 288.5,147.5C 288.167,147.5 287.833,147.5 287.5,147.5C 286.89,146.609 286.557,145.609 286.5,144.5 Z M 292.5,153.5 C 293.906,153.973 294.573,154.973 294.5,156.5C 293.094,156.027 292.427,155.027 292.5,153.5 Z M 294.5,156.5 C 295.906,156.973 296.573,157.973 296.5,159.5C 295.833,159.167 295.167,158.833 294.5,158.5C 294.5,157.833 294.5,157.167 294.5,156.5 Z M 296.5,159.5 C 297.906,159.973 298.573,160.973 298.5,162.5C 297.833,162.167 297.167,161.833 296.5,161.5C 296.5,160.833 296.5,160.167 296.5,159.5 Z M 298.5,162.5 C 299.906,162.973 300.573,163.973 300.5,165.5C 299.833,165.167 299.167,164.833 298.5,164.5C 298.5,163.833 298.5,163.167 298.5,162.5 Z M 300.5,165.5 C 301.906,165.973 302.573,166.973 302.5,168.5C 301.833,168.167 301.167,167.833 300.5,167.5C 300.5,166.833 300.5,166.167 300.5,165.5 Z M 302.5,168.5 C 303.906,168.973 304.573,169.973 304.5,171.5C 303.833,171.167 303.167,170.833 302.5,170.5C 302.5,169.833 302.5,169.167 302.5,168.5 Z M 304.5,171.5 C 305.906,171.973 306.573,172.973 306.5,174.5C 305.833,174.167 305.167,173.833 304.5,173.5C 304.5,172.833 304.5,172.167 304.5,171.5 Z"/></g>
<g><path style="opacity:0.008" fill="#3f2e63" d="M 30.5,82.5 C 28.0248,82.2533 28.0248,81.5866 30.5,80.5C 31.463,80.9698 31.463,81.6365 30.5,82.5 Z"/></g>
<g><path style="opacity:0.008" fill="#7f807f" d="M 125.5,82.5 C 126.833,83.1667 126.833,83.1667 125.5,82.5 Z"/></g>
<g><path style="opacity:0.016" fill="#3a3a3a" d="M 181.5,79.5 C 181.795,81.7354 181.461,83.7354 180.5,85.5C 180.205,83.2646 180.539,81.2646 181.5,79.5 Z"/></g>
<g><path style="opacity:0.012" fill="#545554" d="M 125.5,83.5 C 124.833,84.1667 124.833,84.1667 125.5,83.5 Z"/></g>
<g><path style="opacity:0.008" fill="#494949" d="M 166.5,78.5 C 166.215,80.288 166.548,81.9547 167.5,83.5C 168.768,82.5721 170.101,82.4054 171.5,83C 169.655,84.128 167.655,84.628 165.5,84.5C 165.205,82.2646 165.539,80.2646 166.5,78.5 Z"/></g>
<g><path style="opacity:0.004" fill="#000000" d="M 172.5,83.5 C 173.833,84.1667 173.833,84.1667 172.5,83.5 Z"/></g>
<g><path style="opacity:0.012" fill="#494949" d="M 202.5,83.5 C 202.852,86.0728 202.352,88.4062 201,90.5C 200.932,88.0051 201.432,85.6718 202.5,83.5 Z"/></g>
<g><path style="opacity:0.02" fill="#2a292d" d="M 290.5,96.5 C 290.429,91.4005 291.096,86.4005 292.5,81.5C 292.833,81.6667 293.167,81.8333 293.5,82C 292.539,86.9376 291.539,91.771 290.5,96.5 Z"/></g>
<g><path style="opacity:0.016" fill="#e473fe" d="M 330.5,81.5 C 331.167,81.8333 331.833,82.1667 332.5,82.5C 331.699,84.7929 331.032,84.4596 330.5,81.5 Z"/></g>
<g><path style="opacity:0.012" fill="#363636" d="M 27.5,84.5 C 26.8333,84.5 26.5,84.8333 26.5,85.5C 25.8333,85.5 25.5,85.8333 25.5,86.5C 24.8333,86.5 24.5,86.8333 24.5,87.5C 23.8333,87.5 23.5,87.8333 23.5,88.5C 22.8333,88.5 22.5,88.8333 22.5,89.5C 21.475,89.1034 21.3083,88.4368 22,87.5C 23.1667,86.3333 24.3333,85.1667 25.5,84C 26.4368,83.3083 27.1034,83.475 27.5,84.5 Z"/></g>
<g><path style="opacity:0.008" fill="#696969" d="M 85.5,85.5 C 85.1667,85.5 84.8333,85.5 84.5,85.5C 84.8333,82.8333 85.1667,82.8333 85.5,85.5 Z"/></g>
<g><path style="opacity:0.012" fill="#4d4d4d" d="M 122.5,85.5 C 122.842,84.6618 123.508,84.3284 124.5,84.5C 124.158,85.3382 123.492,85.6716 122.5,85.5 Z"/></g>
<g><path style="opacity:0.005" fill="#1d1d1d" d="M 174.5,84.5 C 175.097,84.7352 175.43,85.2352 175.5,86C 175,87.5 174.5,89 174,90.5C 173.322,88.4024 173.489,86.4024 174.5,84.5 Z"/></g>
<g><path style="opacity:0.016" fill="#383538" d="M 188.5,85.5 C 189.919,84.5489 191.585,84.2155 193.5,84.5C 193.313,86.5643 192.813,88.5643 192,90.5C 192.426,83.903 191.426,83.903 189,90.5C 188.838,88.5459 188.671,86.8793 188.5,85.5 Z"/></g>
<g><path style="opacity:0.004" fill="#000000" d="M 223.5,85.5 C 222.833,84.1667 222.833,84.1667 223.5,85.5 Z"/></g>
<g><path style="opacity:0.02" fill="#323332" d="M 84.5,85.5 C 83.8333,86.1667 83.8333,86.1667 84.5,85.5 Z"/></g>
<g><path style="opacity:0.016" fill="#3e3e3e" d="M 122.5,85.5 C 121.791,86.404 120.791,86.7373 119.5,86.5C 118.997,91.5 118.664,91.1667 118.5,85.5C 119.833,85.5 121.167,85.5 122.5,85.5 Z"/></g>
<g><path style="opacity:0.016" fill="#f184fe" d="M 249.5,84.5 C 250.6,85.5585 251.934,86.3918 253.5,87C 250.983,87.2566 248.65,86.5899 246.5,85C 247.448,84.5172 248.448,84.3505 249.5,84.5 Z"/></g>
<g><path style="opacity:0.004" fill="#282828" d="M 69.5,88.5 C 68.8333,88.5 68.5,88.1667 68.5,87.5C 68.7467,85.0248 69.4134,85.0248 70.5,87.5C 70.3764,88.1067 70.0431,88.44 69.5,88.5 Z"/></g>
<g><path style="opacity:0.016" fill="#2f2f2f" d="M 223.5,85.5 C 224.613,86.9464 224.78,88.6131 224,90.5C 223.506,88.8659 223.34,87.1992 223.5,85.5 Z"/></g>
<g><path style="opacity:0.02" fill="#232323" d="M 83.5,86.5 C 83.6716,87.4916 83.3382,88.1583 82.5,88.5C 82.3284,87.5084 82.6618,86.8417 83.5,86.5 Z"/></g>
<g><path style="opacity:0.016" fill="#404040" d="M 103.5,80.5 C 104.948,83.5959 105.448,86.9292 105,90.5C 103.957,87.2432 103.457,83.9099 103.5,80.5 Z"/></g>
<g><path style="opacity:0.012" fill="#4d4d4d" d="M 131.5,88.5 C 131.167,88.5 130.833,88.5 130.5,88.5C 130.833,85.8333 131.167,85.8333 131.5,88.5 Z"/></g>
<g><path style="opacity:0.012" fill="#40353f" d="M 91.5,90.5 C 91.4614,89.2438 91.9614,88.2438 93,87.5C 94.5185,87.0574 95.6852,87.7241 96.5,89.5C 94.9885,89.3418 93.3218,89.6751 91.5,90.5 Z"/></g>
<g><path style="opacity:0.016" fill="#353535" d="M 152.5,87.5 C 153.573,88.2506 153.74,89.2506 153,90.5C 152.517,89.552 152.351,88.552 152.5,87.5 Z"/></g>
<g><path style="opacity:0.02" fill="#444444" d="M 180.5,85.5 C 180.5,87.1667 180.5,88.8333 180.5,90.5C 179.167,88.8333 179.167,87.1667 180.5,85.5 Z"/></g>
<g><path style="opacity:0.012" fill="#404040" d="M 208.5,87.5 C 208.649,88.552 208.483,89.552 208,90.5C 207.26,89.2506 207.427,88.2506 208.5,87.5 Z"/></g>
<g><path style="opacity:0.012" fill="#626262" d="M 82.5,88.5 C 82.631,89.2389 82.4643,89.9056 82,90.5C 81.3083,89.5632 81.475,88.8966 82.5,88.5 Z"/></g>
<g><path style="opacity:0.008" fill="#696969" d="M 130.5,88.5 C 130.631,89.2389 130.464,89.9056 130,90.5C 129.308,89.5632 129.475,88.8966 130.5,88.5 Z"/></g>
<g><path style="opacity:0.004" fill="#231832" d="M 142.5,87.5 C 143.573,88.2506 143.74,89.2506 143,90.5C 142,89.1667 141,89.1667 140,90.5C 139.833,90.1667 139.667,89.8333 139.5,89.5C 140.602,88.8243 141.602,88.1577 142.5,87.5 Z"/></g>
<g><path style="opacity:0.008" fill="#f080fe" d="M 258.5,88.5 C 259.833,89.5 261.167,90.5 262.5,91.5C 259.984,91.2447 257.65,90.4114 255.5,89C 256.448,88.5172 257.448,88.3505 258.5,88.5 Z"/></g>
<g><path style="opacity:0.016" fill="#de85fe" d="M 323.5,91.5 C 322.167,91.5 320.833,91.5 319.5,91.5C 319.082,90.7784 318.416,90.2784 317.5,90C 319.775,89.595 321.775,90.095 323.5,91.5 Z"/></g>
<g><path style="opacity:0.004" fill="#000000" d="M 90.5,90.5 C 90.8333,90.5 91.1667,90.5 91.5,90.5C 91.3147,91.1701 90.9813,91.1701 90.5,90.5 Z"/></g>
<g><path style="opacity:0.004" fill="#000000" d="M 180.5,90.5 C 180.833,90.5 181.167,90.5 181.5,90.5C 181.315,91.1701 180.981,91.1701 180.5,90.5 Z"/></g>
<g><path style="opacity:0.006" fill="#202020" d="M 20.5,92.5 C 19.8333,92.5 19.5,92.8333 19.5,93.5C 18.2875,92.5029 18.4542,91.5029 20,90.5C 20.4643,91.0944 20.631,91.7611 20.5,92.5 Z"/></g>
<g><path style="opacity:0.004" fill="#000000" d="M 90.5,91.5 C 89.8333,92.1667 89.8333,92.1667 90.5,91.5 Z"/></g>
<g><path style="opacity:0.005" fill="#232323" d="M 162.5,90.5 C 163.624,91.8086 165.124,92.4753 167,92.5C 168.55,92.0495 170.05,91.8829 171.5,92C 167.655,94.1193 163.988,93.786 160.5,91C 161.094,90.5357 161.761,90.369 162.5,90.5 Z"/></g>
<g><path style="opacity:0.004" fill="#f54a08" d="M 323.5,91.5 C 326.152,91.4095 328.485,92.0762 330.5,93.5C 329.167,93.5 327.833,93.5 326.5,93.5C 325.5,92.8333 324.5,92.1667 323.5,91.5 Z"/></g>
<g><path style="opacity:0.016" fill="#e27100" d="M 362.5,98.5 C 361.833,98.1667 361.167,97.8333 360.5,97.5C 360.672,96.5084 360.338,95.8417 359.5,95.5C 359.672,94.5084 359.338,93.8417 358.5,93.5C 358.672,92.5084 358.338,91.8417 357.5,91.5C 357.393,89.6214 357.893,89.2881 359,90.5C 360.454,93.0711 361.62,95.7378 362.5,98.5 Z"/></g>
<g><path style="opacity:0.004" fill="#000000" d="M 89.5,92.5 C 88.0536,93.6129 86.3869,93.7796 84.5,93C 86.1341,92.5065 87.8008,92.3398 89.5,92.5 Z"/></g>
<g><path style="opacity:0.004" fill="#000000" d="M 98.5,93.5 C 99.6009,92.4017 100.934,92.235 102.5,93C 101.207,93.49 99.8734,93.6567 98.5,93.5 Z"/></g>
<g><path style="opacity:0.004" fill="#000000" d="M 112.5,93.5 C 113.601,92.4017 114.934,92.235 116.5,93C 115.207,93.49 113.873,93.6567 112.5,93.5 Z"/></g>
<g><path style="opacity:0.004" fill="#000000" d="M 131.5,93.5 C 133.288,92.3775 135.288,92.2109 137.5,93C 135.527,93.4955 133.527,93.6621 131.5,93.5 Z"/></g>
<g><path style="opacity:0.004" fill="#000000" d="M 145.5,93.5 C 146.946,92.3871 148.613,92.2204 150.5,93C 148.866,93.4935 147.199,93.6602 145.5,93.5 Z"/></g>
<g><path style="opacity:0.004" fill="#000000" d="M 182.5,93.5 C 183.601,92.4017 184.934,92.235 186.5,93C 185.207,93.49 183.873,93.6567 182.5,93.5 Z"/></g>
<g><path style="opacity:0.004" fill="#000000" d="M 194.5,93.5 C 195.601,92.4017 196.934,92.235 198.5,93C 197.207,93.49 195.873,93.6567 194.5,93.5 Z"/></g>
<g><path style="opacity:0.004" fill="#000000" d="M 210.5,93.5 C 213.976,92.3567 217.642,92.1901 221.5,93C 217.848,93.4986 214.182,93.6653 210.5,93.5 Z"/></g>
<g><path style="opacity:0.016" fill="#b65a2c" d="M 262.5,91.5 C 263.5,91.5 264.5,91.5 265.5,91.5C 266.609,92.29 267.942,92.79 269.5,93C 268.877,95.6073 268.21,98.1073 267.5,100.5C 267.5,98.1667 267.5,95.8333 267.5,93.5C 265.447,93.5979 263.78,92.9313 262.5,91.5 Z"/></g>
<g><path style="opacity:0.008" fill="#696969" d="M 73.5,92.5 C 74.525,92.8966 74.6917,93.5632 74,94.5C 73.5357,93.9056 73.369,93.2389 73.5,92.5 Z"/></g>
<g><path style="opacity:0.016" fill="#2a2a2a" d="M 309.5,91.5 C 309.5,92.1667 309.5,92.8333 309.5,93.5C 308.833,93.5 308.5,93.8333 308.5,94.5C 307.833,94.5 307.5,94.8333 307.5,95.5C 306.833,95.5 306.5,95.8333 306.5,96.5C 305.913,94.3152 306.913,92.6485 309.5,91.5 Z"/></g>
<g><path style="opacity:0.016" fill="#f36f09" d="M 336.5,92.5 C 337.272,93.6935 338.272,94.6935 339.5,95.5C 337.741,95.9539 335.741,95.9539 333.5,95.5C 332.5,94.8333 331.5,94.1667 330.5,93.5C 332.262,93.3573 333.929,93.6906 335.5,94.5C 336.298,94.0431 336.631,93.3764 336.5,92.5 Z"/></g>
<g><path style="opacity:0.006" fill="#202020" d="M 69.5,96.5 C 71.9752,96.7467 71.9752,97.4134 69.5,98.5C 68.8933,98.3764 68.56,98.0431 68.5,97.5C 69.1667,97.5 69.5,97.1667 69.5,96.5 Z"/></g>
<g><path style="opacity:0.02" fill="#242425" d="M 40.5,97.5 C 42.8333,97.5 45.1667,97.5 47.5,97.5C 47.8417,98.3382 48.5084,98.6716 49.5,98.5C 49.5,98.8333 49.5,99.1667 49.5,99.5C 46.0697,98.1096 42.7363,98.2763 39.5,100C 38.4258,100.739 37.7591,101.739 37.5,103C 38.5152,104.373 38.5152,105.54 37.5,106.5C 36.8333,106.5 36.5,106.167 36.5,105.5C 36.5,103.833 36.5,102.167 36.5,100.5C 37.1667,100.5 37.5,100.167 37.5,99.5C 38.1667,99.5 38.5,99.1667 38.5,98.5C 39.4916,98.6716 40.1583,98.3382 40.5,97.5 Z"/></g>
<g><path style="opacity:0.006" fill="#202020" d="M 65.5,99.5 C 67.9752,99.7467 67.9752,100.413 65.5,101.5C 64.8933,101.376 64.56,101.043 64.5,100.5C 65.1667,100.5 65.5,100.167 65.5,99.5 Z"/></g>
<g><path style="opacity:0.008" fill="#59585b" d="M 100.5,100.5 C 108.035,99.9272 115.368,100.761 122.5,103C 118.094,102.283 113.594,101.783 109,101.5C 105.144,101.926 101.311,102.093 97.5,102C 98.7375,101.768 99.7375,101.268 100.5,100.5 Z"/></g>
<g><path style="opacity:0.008" fill="#524f52" d="M 173.5,103.5 C 175.148,102.073 177.148,101.24 179.5,101C 187.029,99.9278 194.362,100.595 201.5,103C 196.936,102.202 192.27,101.702 187.5,101.5C 182.727,101.528 178.061,102.195 173.5,103.5 Z"/></g>
<g><path style="opacity:0.004" fill="#0f0f0f" d="M 243.5,103.5 C 247.072,102.097 250.905,101.431 255,101.5C 257.7,101.391 260.2,101.891 262.5,103C 256.175,103.5 249.842,103.666 243.5,103.5 Z"/></g>
<g><path style="opacity:0.008" fill="#ef7cff" d="M 362.5,98.5 C 365.604,102.474 366.104,106.807 364,111.5C 363.424,109.623 363.591,107.789 364.5,106C 364.101,104.272 363.434,102.772 362.5,101.5C 362.5,100.5 362.5,99.5 362.5,98.5 Z"/></g>
<g><path style="opacity:0.008" fill="#656565" d="M 52.5,101.5 C 52.5,102.167 52.5,102.833 52.5,103.5C 51.1667,102.833 51.1667,102.167 52.5,101.5 Z"/></g>
<g><path style="opacity:0.004" fill="#242424" d="M 61.5,102.5 C 63.9752,102.747 63.9752,103.413 61.5,104.5C 60.8933,104.376 60.56,104.043 60.5,103.5C 61.1667,103.5 61.5,103.167 61.5,102.5 Z"/></g>
<g><path style="opacity:0.934" fill="#414042" d="M 127.5,107.5 C 127.5,108.167 127.833,108.5 128.5,108.5C 131.5,110.833 134.167,113.5 136.5,116.5C 136.427,118.027 137.094,119.027 138.5,119.5C 142.444,130.14 142.444,140.807 138.5,151.5C 137.11,152.899 136.11,154.566 135.5,156.5C 134.094,156.973 133.427,157.973 133.5,159.5C 132.833,159.5 132.5,159.833 132.5,160.5C 131.833,160.5 131.5,160.833 131.5,161.5C 129.167,163.167 127.167,165.167 125.5,167.5C 124.833,167.5 124.5,167.833 124.5,168.5C 122.973,168.427 121.973,169.094 121.5,170.5C 109.34,177.219 96.6731,178.219 83.5,173.5C 82.6851,172.163 81.5185,171.163 80,170.5C 79.0636,179.22 77.8969,187.887 76.5,196.5C 70.7945,196.829 65.1278,196.495 59.5,195.5C 62.3383,174.129 65.505,152.795 69,131.5C 70.8599,127.78 72.6932,124.114 74.5,120.5C 75.1667,120.5 75.5,120.167 75.5,119.5C 79.4587,115.843 83.4587,112.176 87.5,108.5C 100.697,101.111 114.03,100.778 127.5,107.5 Z M 112.5,121.5 C 108.818,121.335 105.152,121.501 101.5,122C 99.5087,122.374 97.842,123.207 96.5,124.5C 95.8333,124.5 95.1667,124.5 94.5,124.5C 95.9746,122.59 97.9746,121.424 100.5,121C 104.689,120.188 108.689,120.355 112.5,121.5 Z M 112.5,121.5 C 114.38,121.229 115.713,121.896 116.5,123.5C 115.833,123.5 115.167,123.5 114.5,123.5C 113.833,122.833 113.167,122.167 112.5,121.5 Z M 114.5,123.5 C 114.842,124.338 115.508,124.672 116.5,124.5C 116.5,125.167 116.833,125.5 117.5,125.5C 117.5,126.167 117.833,126.5 118.5,126.5C 118.5,127.167 118.833,127.5 119.5,127.5C 119.328,128.492 119.662,129.158 120.5,129.5C 121.87,135.584 121.536,141.584 119.5,147.5C 118.094,147.973 117.427,148.973 117.5,150.5C 116.833,150.5 116.5,150.833 116.5,151.5C 115.833,151.5 115.5,151.833 115.5,152.5C 113.973,152.427 112.973,153.094 112.5,154.5C 111.508,154.328 110.842,154.662 110.5,155.5C 109.508,155.328 108.842,155.662 108.5,156.5C 106.901,156.232 105.568,156.566 104.5,157.5C 100.443,157.152 96.4432,156.486 92.5,155.5C 92.5,154.833 92.1667,154.5 91.5,154.5C 90.8333,153.167 89.8333,152.167 88.5,151.5C 88.6716,150.508 88.3382,149.842 87.5,149.5C 87.7373,148.209 87.404,147.209 86.5,146.5C 86.5,143.833 86.5,141.167 86.5,138.5C 87.7384,136.786 88.405,134.786 88.5,132.5C 89.9063,132.027 90.573,131.027 90.5,129.5C 91.1667,129.5 91.5,129.167 91.5,128.5C 92.1667,128.5 92.5,128.167 92.5,127.5C 93.1667,127.5 93.5,127.167 93.5,126.5C 94.1667,126.5 94.5,126.167 94.5,125.5C 95.4916,125.672 96.1583,125.338 96.5,124.5C 102.416,122.464 108.416,122.13 114.5,123.5 Z M 116.5,124.5 C 116.5,124.167 116.5,123.833 116.5,123.5C 118.833,123.833 120.167,125.167 120.5,127.5C 120.167,127.5 119.833,127.5 119.5,127.5C 118.833,127.5 118.5,127.167 118.5,126.5C 117.833,126.5 117.5,126.167 117.5,125.5C 116.833,125.5 116.5,125.167 116.5,124.5 Z M 94.5,124.5 C 94.5,124.833 94.5,125.167 94.5,125.5C 93.8333,125.5 93.5,125.833 93.5,126.5C 92.8333,126.5 92.5,126.833 92.5,127.5C 91.8333,127.5 91.5,127.833 91.5,128.5C 90.8333,128.5 90.5,128.833 90.5,129.5C 89.8333,129.833 89.1667,130.167 88.5,130.5C 89.5,127.5 91.5,125.5 94.5,124.5 Z M 120.5,127.5 C 122.104,128.287 122.771,129.62 122.5,131.5C 121.833,130.833 121.167,130.167 120.5,129.5C 120.5,128.833 120.5,128.167 120.5,127.5 Z M 122.5,131.5 C 123.224,133.218 123.891,135.052 124.5,137C 123.972,140.089 122.972,142.923 121.5,145.5C 122.314,140.881 122.647,136.214 122.5,131.5 Z M 86.5,134.5 C 86.5,135.833 86.5,137.167 86.5,138.5C 85.1667,141.167 85.1667,143.833 86.5,146.5C 86.2627,147.791 86.596,148.791 87.5,149.5C 87.3284,150.492 87.6618,151.158 88.5,151.5C 88.5,152.167 88.5,152.833 88.5,153.5C 86.5905,152.025 85.4238,150.025 85,147.5C 84.0613,142.864 84.5613,138.531 86.5,134.5 Z M 117.5,150.5 C 117.833,150.5 118.167,150.5 118.5,150.5C 118.5,152.5 117.5,153.5 115.5,153.5C 115.5,153.167 115.5,152.833 115.5,152.5C 116.167,152.5 116.5,152.167 116.5,151.5C 117.167,151.5 117.5,151.167 117.5,150.5 Z M 89.5,154.5 C 90.1667,154.5 90.8333,154.5 91.5,154.5C 92.1667,154.5 92.5,154.833 92.5,155.5C 92.5,155.833 92.5,156.167 92.5,156.5C 90.9731,156.573 89.9731,155.906 89.5,154.5 Z M 112.5,154.5 C 113.167,154.5 113.833,154.5 114.5,154.5C 109.649,158.631 103.982,160.131 97.5,159C 96.2625,158.768 95.2625,158.268 94.5,157.5C 97.9988,158.444 101.332,158.444 104.5,157.5C 106.099,157.768 107.432,157.434 108.5,156.5C 109.492,156.672 110.158,156.338 110.5,155.5C 111.492,155.672 112.158,155.338 112.5,154.5 Z"/></g>
<g><path style="opacity:0.922" fill="#414042" d="M 204.5,106.5 C 204.842,107.338 205.508,107.672 206.5,107.5C 206.5,108.167 206.833,108.5 207.5,108.5C 209.5,111.167 211.833,113.5 214.5,115.5C 214.5,116.167 214.833,116.5 215.5,116.5C 218.376,122.134 220.043,128.134 220.5,134.5C 218.832,147.843 217.165,161.176 215.5,174.5C 209.833,174.5 204.167,174.5 198.5,174.5C 199.162,170.534 199.495,166.534 199.5,162.5C 200.473,160.052 200.806,157.385 200.5,154.5C 202.239,147.725 202.739,140.725 202,133.5C 201.76,131.148 200.927,129.148 199.5,127.5C 198.833,124.833 197.167,123.167 194.5,122.5C 194.082,121.778 193.416,121.278 192.5,121C 188.167,120.333 183.833,120.333 179.5,121C 176.975,121.424 174.975,122.59 173.5,124.5C 171.973,124.427 170.973,125.094 170.5,126.5C 169.833,126.5 169.5,126.833 169.5,127.5C 168.094,127.973 167.427,128.973 167.5,130.5C 165.59,131.975 164.424,133.975 164,136.5C 163.333,140.5 163.333,144.5 164,148.5C 164.278,149.416 164.778,150.082 165.5,150.5C 165.427,152.027 166.094,153.027 167.5,153.5C 167.5,154.167 167.833,154.5 168.5,154.5C 168.5,155.167 168.833,155.5 169.5,155.5C 170.514,156.674 171.847,157.34 173.5,157.5C 178.167,160.167 182.833,160.167 187.5,157.5C 190.089,157.539 192.089,156.539 193.5,154.5C 194.167,154.5 194.5,154.167 194.5,153.5C 195.167,153.5 195.5,153.167 195.5,152.5C 196.167,152.5 196.5,152.167 196.5,151.5C 197.167,151.5 197.833,151.5 198.5,151.5C 197.668,157.486 196.835,163.486 196,169.5C 195.743,171.907 194.576,173.573 192.5,174.5C 179.626,178.47 167.626,176.803 156.5,169.5C 156.5,168.833 156.167,168.5 155.5,168.5C 155.5,167.833 155.167,167.5 154.5,167.5C 154.5,166.833 154.167,166.5 153.5,166.5C 152.974,164.77 151.974,163.436 150.5,162.5C 149.35,159.702 148.017,157.035 146.5,154.5C 144.433,143.513 146.099,133.179 151.5,123.5C 152.338,123.158 152.672,122.492 152.5,121.5C 153.167,121.5 153.5,121.167 153.5,120.5C 156.5,116.833 159.833,113.5 163.5,110.5C 164.167,110.5 164.5,110.167 164.5,109.5C 177.331,101.741 190.664,100.741 204.5,106.5 Z M 194.5,122.5 C 189.871,121.519 185.204,121.352 180.5,122C 178.509,122.374 176.842,123.207 175.5,124.5C 174.833,124.5 174.167,124.5 173.5,124.5C 174.975,122.59 176.975,121.424 179.5,121C 183.833,120.333 188.167,120.333 192.5,121C 193.416,121.278 194.082,121.778 194.5,122.5 Z M 195.5,124.5 C 195.5,125.167 195.833,125.5 196.5,125.5C 196.5,126.167 196.833,126.5 197.5,126.5C 200.987,134.749 201.321,143.082 198.5,151.5C 197.833,151.5 197.167,151.5 196.5,151.5C 196.5,151.167 196.5,150.833 196.5,150.5C 194.251,151.08 192.585,152.413 191.5,154.5C 190.508,154.328 189.842,154.662 189.5,155.5C 185.557,156.486 181.557,157.152 177.5,157.5C 175.698,156.542 173.698,155.875 171.5,155.5C 170.5,153.833 169.167,152.5 167.5,151.5C 167.34,149.847 166.674,148.514 165.5,147.5C 165.5,144.167 165.5,140.833 165.5,137.5C 166.404,136.791 166.737,135.791 166.5,134.5C 167.338,134.158 167.672,133.492 167.5,132.5C 168.338,132.158 168.672,131.492 168.5,130.5C 169.167,130.5 169.5,130.167 169.5,129.5C 170.833,128.833 171.833,127.833 172.5,126.5C 173.167,126.5 173.5,126.167 173.5,125.5C 174.492,125.672 175.158,125.338 175.5,124.5C 182.183,121.924 188.849,121.924 195.5,124.5 Z M 194.5,122.5 C 197.167,123.167 198.833,124.833 199.5,127.5C 198.833,127.167 198.167,126.833 197.5,126.5C 196.833,126.5 196.5,126.167 196.5,125.5C 195.833,125.5 195.5,125.167 195.5,124.5C 195.167,123.833 194.833,123.167 194.5,122.5 Z M 173.5,124.5 C 173.5,124.833 173.5,125.167 173.5,125.5C 172.833,125.5 172.5,125.833 172.5,126.5C 171.833,126.5 171.167,126.5 170.5,126.5C 170.973,125.094 171.973,124.427 173.5,124.5 Z M 169.5,127.5 C 169.5,128.167 169.5,128.833 169.5,129.5C 168.833,129.5 168.5,129.833 168.5,130.5C 168.167,130.5 167.833,130.5 167.5,130.5C 167.427,128.973 168.094,127.973 169.5,127.5 Z M 199.5,127.5 C 200.927,129.148 201.76,131.148 202,133.5C 202.739,140.725 202.239,147.725 200.5,154.5C 202.058,145.403 201.724,136.403 199.5,127.5 Z M 167.5,130.5 C 167.5,131.167 167.5,131.833 167.5,132.5C 166.662,132.842 166.328,133.508 166.5,134.5C 165.596,135.209 165.263,136.209 165.5,137.5C 164.167,140.833 164.167,144.167 165.5,147.5C 165.5,148.5 165.5,149.5 165.5,150.5C 164.778,150.082 164.278,149.416 164,148.5C 163.333,144.5 163.333,140.5 164,136.5C 164.424,133.975 165.59,131.975 167.5,130.5 Z M 165.5,150.5 C 166.167,150.833 166.833,151.167 167.5,151.5C 167.5,152.167 167.5,152.833 167.5,153.5C 166.094,153.027 165.427,152.027 165.5,150.5 Z M 191.5,154.5 C 192.167,154.5 192.833,154.5 193.5,154.5C 192.089,156.539 190.089,157.539 187.5,157.5C 188.167,156.833 188.833,156.167 189.5,155.5C 190.492,155.672 191.158,155.338 191.5,154.5 Z M 173.5,157.5 C 174.833,157.5 176.167,157.5 177.5,157.5C 180.668,158.444 184.001,158.444 187.5,157.5C 182.833,160.167 178.167,160.167 173.5,157.5 Z"/></g>
<g><path style="opacity:0.012" fill="#545554" d="M 241.5,104.5 C 241.842,103.662 242.508,103.328 243.5,103.5C 243.158,104.338 242.492,104.672 241.5,104.5 Z"/></g>
<g><path style="opacity:0.004" fill="#151515" d="M 52.5,103.5 C 53.525,103.897 53.6917,104.563 53,105.5C 52.5357,104.906 52.369,104.239 52.5,103.5 Z"/></g>
<g><path style="opacity:0.008" fill="#595959" d="M 173.5,103.5 C 172.473,104.848 171.14,105.348 169.5,105C 170.563,103.812 171.897,103.312 173.5,103.5 Z"/></g>
<g><path style="opacity:0.004" fill="#1d1d1d" d="M 206.5,106.5 C 205.833,106.5 205.167,106.5 204.5,106.5C 203.939,103.813 204.606,103.813 206.5,106.5 Z"/></g>
<g><path style="opacity:0.012" fill="#545554" d="M 239.5,105.5 C 239.842,104.662 240.508,104.328 241.5,104.5C 241.158,105.338 240.492,105.672 239.5,105.5 Z"/></g>
<g><path style="opacity:0.914" fill="#403f41" d="M 247.5,123.5 C 246.833,123.5 246.5,123.833 246.5,124.5C 243.361,140.242 240.861,156.242 239,172.5C 238.626,173.416 238.126,174.25 237.5,175C 232.177,175.499 226.844,175.666 221.5,175.5C 223.459,156.785 225.793,138.118 228.5,119.5C 230.891,114.721 234.224,110.721 238.5,107.5C 246.219,104.787 254.219,103.787 262.5,104.5C 262.401,110.3 261.567,115.967 260,121.5C 255.732,122.14 251.565,122.807 247.5,123.5 Z"/></g>
<g><path style="opacity:0.004" fill="#272727" d="M 57.5,105.5 C 58.2389,105.369 58.9056,105.536 59.5,106C 58.4214,106.956 57.2547,107.789 56,108.5C 55.7613,107.212 56.2613,106.212 57.5,105.5 Z"/></g>
<g><path style="opacity:0.004" fill="#202020" d="M 239.5,105.5 C 239.167,106.167 238.833,106.833 238.5,107.5C 236.207,106.699 236.54,106.032 239.5,105.5 Z"/></g>
<g><path style="opacity:0.016" fill="#2b2b2b" d="M 299.5,102.5 C 299.5,103.167 299.5,103.833 299.5,104.5C 298.833,104.5 298.5,104.833 298.5,105.5C 297.833,105.5 297.5,105.833 297.5,106.5C 296.833,106.5 296.5,106.833 296.5,107.5C 295.913,105.315 296.913,103.648 299.5,102.5 Z"/></g>
<g><path style="opacity:0.006" fill="#202020" d="M 87.5,108.5 C 85.0248,108.253 85.0248,107.587 87.5,106.5C 88.463,106.97 88.463,107.637 87.5,108.5 Z"/></g>
<g><path style="opacity:0.004" fill="#202020" d="M 127.5,107.5 C 128.497,106.287 129.497,106.454 130.5,108C 129.906,108.464 129.239,108.631 128.5,108.5C 127.833,108.5 127.5,108.167 127.5,107.5 Z"/></g>
<g><path style="opacity:0.004" fill="#202020" d="M 206.5,107.5 C 206.5,107.167 206.5,106.833 206.5,106.5C 209.46,107.032 209.793,107.699 207.5,108.5C 206.833,108.5 206.5,108.167 206.5,107.5 Z"/></g>
<g><path style="opacity:0.006" fill="#202020" d="M 164.5,109.5 C 163.833,109.5 163.5,109.833 163.5,110.5C 161.025,110.253 161.025,109.587 163.5,108.5C 164.107,108.624 164.44,108.957 164.5,109.5 Z"/></g>
<g><path style="opacity:0.016" fill="#373737" d="M 265.5,107.5 C 264.532,109.607 264.198,111.941 264.5,114.5C 263.686,116.631 263.186,118.964 263,121.5C 262.45,115.684 263.117,110.018 265,104.5C 265.483,105.448 265.649,106.448 265.5,107.5 Z"/></g>
<g><path style="opacity:0.012" fill="#434343" d="M 41.5,111.5 C 40.8333,111.5 40.5,111.167 40.5,110.5C 39.8333,110.5 39.5,110.167 39.5,109.5C 40.2855,107.408 41.2855,107.741 42.5,110.5C 42.3764,111.107 42.0431,111.44 41.5,111.5 Z"/></g>
<g><path style="opacity:0.004" fill="#b54e38" d="M 318.5,106.5 C 318.843,108.483 318.176,109.817 316.5,110.5C 316.5,110.167 316.5,109.833 316.5,109.5C 317.167,108.5 317.833,107.5 318.5,106.5 Z"/></g>
<g><path style="opacity:0.012" fill="#39373b" d="M 16.5,116.5 C 12.705,110.052 12.5383,103.386 16,96.5C 15.8433,99.8191 15.3433,103.152 14.5,106.5C 15.1705,109.846 15.8372,113.179 16.5,116.5 Z"/></g>
<g><path style="opacity:0.016" fill="#3f403f" d="M 315.5,110.5 C 315.833,110.5 316.167,110.5 316.5,110.5C 316.315,111.17 315.981,111.17 315.5,110.5 Z"/></g>
<g><path style="opacity:0.016" fill="#3f403f" d="M 314.5,111.5 C 314.833,111.5 315.167,111.5 315.5,111.5C 315.315,112.17 314.981,112.17 314.5,111.5 Z"/></g>
<g><path style="opacity:0.016" fill="#3f403f" d="M 313.5,112.5 C 313.833,112.5 314.167,112.5 314.5,112.5C 314.315,113.17 313.981,113.17 313.5,112.5 Z"/></g>
<g><path style="opacity:0.02" fill="#2c2c2c" d="M 290.5,96.5 C 289.998,101.838 289.831,107.172 290,112.5C 290.383,111.944 290.883,111.611 291.5,111.5C 291.5,112.167 291.5,112.833 291.5,113.5C 290.833,113.5 290.5,113.833 290.5,114.5C 289.833,114.5 289.5,114.833 289.5,115.5C 288.833,115.5 288.5,115.833 288.5,116.5C 287.861,115.903 287.528,115.07 287.5,114C 288.225,107.98 289.225,102.147 290.5,96.5 Z"/></g>
<g><path style="opacity:0.016" fill="#3f403f" d="M 312.5,113.5 C 312.833,113.5 313.167,113.5 313.5,113.5C 313.315,114.17 312.981,114.17 312.5,113.5 Z"/></g>
<g><path style="opacity:0.006" fill="#202020" d="M 138.5,117.5 C 137.833,117.167 137.167,116.833 136.5,116.5C 137.301,114.207 137.968,114.54 138.5,117.5 Z"/></g>
<g><path style="opacity:0.016" fill="#3e343d" d="M 216.5,116.5 C 216.167,116.5 215.833,116.5 215.5,116.5C 214.833,116.5 214.5,116.167 214.5,115.5C 215.301,113.207 215.968,113.54 216.5,116.5 Z"/></g>
<g><path style="opacity:0.012" fill="#545554" d="M 216.5,116.5 C 217.167,116.5 217.5,116.833 217.5,117.5C 217.167,117.167 216.833,116.833 216.5,116.5 Z"/></g>
<g><path style="opacity:0.004" fill="#2a272a" d="M 311.5,114.5 C 311.833,114.5 312.167,114.5 312.5,114.5C 310.612,117.899 308.112,120.899 305,123.5C 304.536,122.906 304.369,122.239 304.5,121.5C 305.167,121.5 305.5,121.167 305.5,120.5C 306.167,120.5 306.5,120.167 306.5,119.5C 307.167,119.5 307.5,119.167 307.5,118.5C 308.167,118.5 308.5,118.167 308.5,117.5C 309.167,117.5 309.5,117.167 309.5,116.5C 310.167,116.5 310.5,116.167 310.5,115.5C 311.167,115.5 311.5,115.167 311.5,114.5 Z"/></g>
<g><path style="opacity:0.004" fill="#1d1d1d" d="M 16.5,116.5 C 17.1667,116.833 17.8333,117.167 18.5,117.5C 18.5,118.167 18.5,118.833 18.5,119.5C 17.0937,119.027 16.427,118.027 16.5,116.5 Z"/></g>
<g><path style="opacity:0.012" fill="#3a393a" d="M 267.5,100.5 C 265.473,121.385 262.807,142.051 259.5,162.5C 261.002,146.481 262.669,130.481 264.5,114.5C 265.468,112.393 265.802,110.059 265.5,107.5C 266.167,105.167 266.833,102.833 267.5,100.5 Z"/></g>
<g><path style="opacity:0.004" fill="#2b2b2b" d="M 75.5,119.5 C 74.8333,119.5 74.5,119.833 74.5,120.5C 73.2875,119.503 73.4542,118.503 75,117.5C 75.4643,118.094 75.631,118.761 75.5,119.5 Z"/></g>
<g><path style="opacity:0.012" fill="#393939" d="M 217.5,117.5 C 218.338,117.842 218.672,118.508 218.5,119.5C 217.662,119.158 217.328,118.492 217.5,117.5 Z"/></g>
<g><path style="opacity:0.006" fill="#232323" d="M 228.5,119.5 C 227.833,120.5 227.167,121.5 226.5,122.5C 226.372,120.345 226.872,118.345 228,116.5C 228.483,117.448 228.649,118.448 228.5,119.5 Z"/></g>
<g><path style="opacity:0.008" fill="#d56d05" d="M 335.5,115.5 C 338.5,116.833 341.5,118.167 344.5,119.5C 340.049,118.851 335.716,117.684 331.5,116C 332.793,115.51 334.127,115.343 335.5,115.5 Z"/></g>
<g><path style="opacity:0.012" fill="#3e3e3e" d="M 138.5,117.5 C 140.539,118.911 141.539,120.911 141.5,123.5C 140.5,122.167 139.5,120.833 138.5,119.5C 138.5,118.833 138.5,118.167 138.5,117.5 Z"/></g>
<g><path style="opacity:0.006" fill="#282828" d="M 153.5,120.5 C 152.833,120.5 152.5,120.833 152.5,121.5C 152.167,121.5 151.833,121.5 151.5,121.5C 152.032,118.54 152.699,118.207 153.5,120.5 Z"/></g>
<g><path style="opacity:0.008" fill="#ed64ff" d="M 356.5,117.5 C 358.735,118.248 358.402,119.081 355.5,120C 351.642,120.81 347.976,120.643 344.5,119.5C 347.85,119.665 351.183,119.498 354.5,119C 355.416,118.722 356.082,118.222 356.5,117.5 Z"/></g>
<g><path style="opacity:0.006" fill="#202020" d="M 18.5,119.5 C 18.8333,119.5 19.1667,119.5 19.5,119.5C 20.1667,119.5 20.5,119.833 20.5,120.5C 19.6987,122.793 19.032,122.46 18.5,119.5 Z"/></g>
<g><path style="opacity:0.012" fill="#626262" d="M 218.5,119.5 C 219.338,119.842 219.672,120.508 219.5,121.5C 218.662,121.158 218.328,120.492 218.5,119.5 Z"/></g>
<g><path style="opacity:0.004" fill="#332e3b" d="M 55.5,126.5 C 54.8333,126.5 54.5,126.167 54.5,125.5C 53.8333,125.5 53.5,125.167 53.5,124.5C 52.8333,124.5 52.5,124.167 52.5,123.5C 52.369,122.761 52.5357,122.094 53,121.5C 54,122.5 55,123.5 56,124.5C 56.6917,125.437 56.525,126.103 55.5,126.5 Z"/></g>
<g><path style="opacity:0.004" fill="#202020" d="M 151.5,121.5 C 151.5,122.167 151.5,122.833 151.5,123.5C 148.813,124.061 148.813,123.394 151.5,121.5 Z"/></g>
<g><path style="opacity:0.006" fill="#393739" d="M 112.5,121.5 C 113.167,122.167 113.833,122.833 114.5,123.5C 108.416,122.13 102.416,122.464 96.5,124.5C 97.842,123.207 99.5087,122.374 101.5,122C 105.152,121.501 108.818,121.335 112.5,121.5 Z"/></g>
<g><path style="opacity:0.016" fill="#3e393d" d="M 194.5,122.5 C 194.833,123.167 195.167,123.833 195.5,124.5C 188.849,121.924 182.183,121.924 175.5,124.5C 176.842,123.207 178.509,122.374 180.5,122C 185.204,121.352 189.871,121.519 194.5,122.5 Z"/></g>
<g><path style="opacity:0.004" fill="#292929" d="M 25.5,126.5 C 26.1667,126.5 26.5,126.833 26.5,127.5C 27.1667,127.5 27.5,127.833 27.5,128.5C 28.1667,128.5 28.5,128.833 28.5,129.5C 28.631,130.239 28.4643,130.906 28,131.5C 27,130.5 26,129.5 25,128.5C 24.3083,127.563 24.475,126.897 25.5,126.5 Z"/></g>
<g><path style="opacity:0.012" fill="#3e3e3e" d="M 170.5,126.5 C 171.167,126.5 171.833,126.5 172.5,126.5C 171.833,127.833 170.833,128.833 169.5,129.5C 169.5,128.833 169.5,128.167 169.5,127.5C 170.167,127.5 170.5,127.167 170.5,126.5 Z"/></g>
<g><path style="opacity:0.012" fill="#303030" d="M 301.5,132.5 C 300.833,132.167 300.167,131.833 299.5,131.5C 300.301,129.207 300.968,129.54 301.5,132.5 Z"/></g>
<g><path style="opacity:0.016" fill="#3e3e3e" d="M 90.5,129.5 C 90.573,131.027 89.9063,132.027 88.5,132.5C 88.5,131.833 88.5,131.167 88.5,130.5C 89.1667,130.167 89.8333,129.833 90.5,129.5 Z"/></g>
<g><path style="opacity:0.02" fill="#434343" d="M 66.5,134.5 C 66.3505,133.448 66.5172,132.448 67,131.5C 67.7401,132.749 67.5735,133.749 66.5,134.5 Z"/></g>
<g><path style="opacity:0.02" fill="#303030" d="M 247.5,123.5 C 251.846,123.334 256.179,123.501 260.5,124C 256.247,124.2 252.08,124.7 248,125.5C 246.959,131.996 245.792,138.33 244.5,144.5C 244.885,137.803 245.552,131.136 246.5,124.5C 247.167,124.5 247.5,124.167 247.5,123.5 Z"/></g>
<g><path style="opacity:0.005" fill="#27232c" d="M 197.5,126.5 C 198.167,126.833 198.833,127.167 199.5,127.5C 201.724,136.403 202.058,145.403 200.5,154.5C 199.833,153.5 199.167,152.5 198.5,151.5C 201.321,143.082 200.987,134.749 197.5,126.5 Z"/></g>
<g><path style="opacity:0.006" fill="#202020" d="M 301.5,132.5 C 303.382,133.221 303.715,134.221 302.5,135.5C 301.833,135.5 301.5,135.167 301.5,134.5C 301.5,133.833 301.5,133.167 301.5,132.5 Z"/></g>
<g><path style="opacity:0.004" fill="#1d1d1d" d="M 87.5,132.5 C 87.8333,132.5 88.1667,132.5 88.5,132.5C 88.405,134.786 87.7384,136.786 86.5,138.5C 86.5,137.167 86.5,135.833 86.5,134.5C 87.3382,134.158 87.6716,133.492 87.5,132.5 Z"/></g>
<g><path style="opacity:0.006" fill="#343334" d="M 219.5,121.5 C 220.793,122.842 221.626,124.509 222,126.5C 222.333,132.167 222.667,137.833 223,143.5C 223.671,136.278 224.838,129.278 226.5,122.5C 225.474,134.723 223.807,146.723 221.5,158.5C 221.167,149.167 220.833,149.167 220.5,158.5C 219.167,160.833 219.167,163.167 220.5,165.5C 220.664,168.187 220.497,170.854 220,173.5C 218.736,173.64 217.569,173.64 216.5,173.5C 218.819,160.602 220.485,147.602 221.5,134.5C 221.311,130.08 220.644,125.747 219.5,121.5 Z"/></g>
<g><path style="opacity:0.02" fill="#3a3a3a" d="M 141.5,123.5 C 143.138,127.876 143.971,132.542 144,137.5C 144.333,136.167 144.667,134.833 145,133.5C 145.167,134.333 145.333,135.167 145.5,136C 144.631,141.129 144.298,146.296 144.5,151.5C 143.683,149.031 143.183,146.365 143,143.5C 142.76,145.852 141.927,147.852 140.5,149.5C 142.694,140.914 143.028,132.248 141.5,123.5 Z"/></g>
<g><path style="opacity:0.004" fill="#1d1d1d" d="M 307.5,142.5 C 306.833,142.5 306.5,142.167 306.5,141.5C 306.747,139.025 307.413,139.025 308.5,141.5C 308.376,142.107 308.043,142.44 307.5,142.5 Z"/></g>
<g><path style="opacity:0.012" fill="#3b3b3b" d="M 35.5,137.5 C 36.1667,137.5 36.5,137.833 36.5,138.5C 37.1667,138.5 37.5,138.833 37.5,139.5C 38.1667,139.5 38.5,139.833 38.5,140.5C 38.631,141.239 38.4643,141.906 38,142.5C 37,141.5 36,140.5 35,139.5C 34.3083,138.563 34.475,137.897 35.5,137.5 Z"/></g>
<g><path style="opacity:0.008" fill="#535353" d="M 16.5,145.5 C 16.8966,144.475 17.5632,144.308 18.5,145C 17.9056,145.464 17.2389,145.631 16.5,145.5 Z"/></g>
<g><path style="opacity:0.012" fill="#3f3e42" d="M 120.5,129.5 C 121.167,130.167 121.833,130.833 122.5,131.5C 122.647,136.214 122.314,140.881 121.5,145.5C 120.662,145.842 120.328,146.508 120.5,147.5C 120.167,147.5 119.833,147.5 119.5,147.5C 121.536,141.584 121.87,135.584 120.5,129.5 Z"/></g>
<g><path style="opacity:0.016" fill="#414141" d="M 309.5,145.5 C 309.747,143.025 310.413,143.025 311.5,145.5C 311.03,146.463 310.363,146.463 309.5,145.5 Z"/></g>
<g><path style="opacity:0.005" fill="#181818" d="M 40.5,143.5 C 41.1667,143.5 41.5,143.833 41.5,144.5C 42.8333,147.5 42.8333,150.5 41.5,153.5C 40.8333,153.5 40.5,153.833 40.5,154.5C 39.8333,154.5 39.5,154.833 39.5,155.5C 38.8333,155.5 38.1667,155.5 37.5,155.5C 38.1217,154.373 38.955,153.373 40,152.5C 40.2289,149.265 40.3956,146.265 40.5,143.5 Z"/></g>
<g><path style="opacity:0.008" fill="#5c5c5c" d="M 16.5,145.5 C 16.1667,146.167 15.8333,146.833 15.5,147.5C 14.5084,147.328 13.8417,147.662 13.5,148.5C 12.5084,148.328 11.8417,148.662 11.5,149.5C 10.4168,149.539 9.41683,149.873 8.5,150.5C 7.30441,150.154 7.30441,149.654 8.5,149C 11.0711,147.546 13.7378,146.38 16.5,145.5 Z"/></g>
<g><path style="opacity:0.004" fill="#1a1a1a" d="M 287.5,147.5 C 287.833,147.5 288.167,147.5 288.5,147.5C 289.167,147.5 289.5,147.833 289.5,148.5C 289.5,149.167 289.5,149.833 289.5,150.5C 288.094,150.027 287.427,149.027 287.5,147.5 Z"/></g>
<g><path style="opacity:0.02" fill="#2f2f2f" d="M 119.5,147.5 C 119.5,148.167 119.5,148.833 119.5,149.5C 118.833,149.5 118.5,149.833 118.5,150.5C 118.167,150.5 117.833,150.5 117.5,150.5C 117.427,148.973 118.094,147.973 119.5,147.5 Z"/></g>
<g><path style="opacity:0.004" fill="#1c1c1c" d="M 165.5,147.5 C 166.674,148.514 167.34,149.847 167.5,151.5C 166.833,151.167 166.167,150.833 165.5,150.5C 165.5,149.5 165.5,148.5 165.5,147.5 Z"/></g>
<g><path style="opacity:0.004" fill="#322a3f" d="M 140.5,149.5 C 140.688,151.103 140.188,152.437 139,153.5C 138.536,152.906 138.369,152.239 138.5,151.5C 139.167,150.833 139.833,150.167 140.5,149.5 Z"/></g>
<g><path style="opacity:0.004" fill="#1e1e1e" d="M 289.5,150.5 C 289.833,150.5 290.167,150.5 290.5,150.5C 291.167,150.5 291.5,150.833 291.5,151.5C 290.699,153.793 290.032,153.46 289.5,150.5 Z"/></g>
<g><path style="opacity:0.012" fill="#424242" d="M 88.5,151.5 C 89.8333,152.167 90.8333,153.167 91.5,154.5C 90.8333,154.5 90.1667,154.5 89.5,154.5C 89.5,153.833 89.1667,153.5 88.5,153.5C 88.5,152.833 88.5,152.167 88.5,151.5 Z"/></g>
<g><path style="opacity:0.02" fill="#242424" d="M 196.5,150.5 C 196.5,150.833 196.5,151.167 196.5,151.5C 195.833,151.5 195.5,151.833 195.5,152.5C 194.833,152.5 194.5,152.833 194.5,153.5C 193.833,153.5 193.5,153.833 193.5,154.5C 192.833,154.5 192.167,154.5 191.5,154.5C 192.585,152.413 194.251,151.08 196.5,150.5 Z"/></g>
<g><path style="opacity:0.016" fill="#3e343d" d="M 316.5,153.5 C 315.833,153.167 315.167,152.833 314.5,152.5C 315.301,150.207 315.968,150.54 316.5,153.5 Z"/></g>
<g><path style="opacity:0.008" fill="#515151" d="M 115.5,152.5 C 115.5,152.833 115.5,153.167 115.5,153.5C 114.833,153.5 114.5,153.833 114.5,154.5C 113.833,154.5 113.167,154.5 112.5,154.5C 112.973,153.094 113.973,152.427 115.5,152.5 Z"/></g>
<g><path style="opacity:0.016" fill="#3a3a3a" d="M 167.5,151.5 C 169.167,152.5 170.5,153.833 171.5,155.5C 170.833,155.5 170.167,155.5 169.5,155.5C 168.833,155.5 168.5,155.167 168.5,154.5C 167.833,154.5 167.5,154.167 167.5,153.5C 167.5,152.833 167.5,152.167 167.5,151.5 Z"/></g>
<g><path style="opacity:0.02" fill="#2e2e2e" d="M 244.5,144.5 C 244.556,149.731 243.889,154.731 242.5,159.5C 242.444,154.269 243.111,149.269 244.5,144.5 Z"/></g>
<g><path style="opacity:0.006" fill="#242424" d="M 144.5,151.5 C 145.167,152.5 145.833,153.5 146.5,154.5C 146.649,155.552 146.483,156.552 146,157.5C 144.872,155.655 144.372,153.655 144.5,151.5 Z"/></g>
<g><path style="opacity:0.004" fill="#282828" d="M 92.5,156.5 C 92.5,156.167 92.5,155.833 92.5,155.5C 96.4432,156.486 100.443,157.152 104.5,157.5C 101.332,158.444 97.9988,158.444 94.5,157.5C 94.1583,156.662 93.4916,156.328 92.5,156.5 Z"/></g>
<g><path style="opacity:0.016" fill="#464646" d="M 316.5,153.5 C 318.382,154.221 318.715,155.221 317.5,156.5C 316.833,156.5 316.5,156.167 316.5,155.5C 316.5,154.833 316.5,154.167 316.5,153.5 Z"/></g>
<g><path style="opacity:0.02" fill="#2f2f2f" d="M 189.5,155.5 C 188.833,156.167 188.167,156.833 187.5,157.5C 184.001,158.444 180.668,158.444 177.5,157.5C 181.557,157.152 185.557,156.486 189.5,155.5 Z"/></g>
<g><path style="opacity:0.012" fill="#484848" d="M 135.5,156.5 C 137.892,155.632 138.059,156.299 136,158.5C 135.536,157.906 135.369,157.239 135.5,156.5 Z"/></g>
<g><path style="opacity:0.031" fill="#313034" d="M 199.5,162.5 C 198.371,160.372 198.204,158.039 199,155.5C 199.497,157.81 199.663,160.143 199.5,162.5 Z"/></g>
<g><path style="opacity:0.012" fill="#404040" d="M 220.5,158.5 C 220.833,158.5 221.167,158.5 221.5,158.5C 221.802,161.059 221.468,163.393 220.5,165.5C 220.5,163.167 220.5,160.833 220.5,158.5 Z"/></g>
<g><path style="opacity:0.008" fill="#5d5d5d" d="M 294.5,158.5 C 295.167,158.833 295.833,159.167 296.5,159.5C 296.5,160.167 296.5,160.833 296.5,161.5C 295.094,161.027 294.427,160.027 294.5,158.5 Z"/></g>
<g><path style="opacity:0.004" fill="#212121" d="M -0.5,158.5 C 0.166667,159.167 0.833333,159.833 1.5,160.5C 1.63318,163.925 0.966513,164.258 -0.5,161.5C -0.5,160.5 -0.5,159.5 -0.5,158.5 Z"/></g>
<g><path style="opacity:0.006" fill="#202020" d="M 58.5,160.5 C 60.8919,159.632 61.0586,160.299 59,162.5C 58.5357,161.906 58.369,161.239 58.5,160.5 Z"/></g>
<g><path style="opacity:0.006" fill="#242424" d="M 133.5,159.5 C 134.559,161.07 134.059,162.403 132,163.5C 131.536,162.906 131.369,162.239 131.5,161.5C 132.167,161.5 132.5,161.167 132.5,160.5C 133.167,160.5 133.5,160.167 133.5,159.5 Z"/></g>
<g><path style="opacity:0.02" fill="#3a3339" d="M 242.5,159.5 C 242.412,164.536 241.912,169.536 241,174.5C 240.448,169.275 240.948,164.275 242.5,159.5 Z"/></g>
<g><path style="opacity:0.012" fill="#3d3a3d" d="M 66.5,134.5 C 63.8306,155.188 60.9973,175.855 58,196.5C 59.4432,178.421 61.6098,160.588 64.5,143C 63.4217,140.205 62.9217,137.371 63,134.5C 63.6667,135.833 64.3333,137.167 65,138.5C 65.21,136.942 65.71,135.609 66.5,134.5 Z"/></g>
<g><path style="opacity:0.008" fill="#5b5b5b" d="M 150.5,162.5 C 150.253,164.975 149.587,164.975 148.5,162.5C 148.97,161.537 149.637,161.537 150.5,162.5 Z"/></g>
<g><path style="opacity:0.006" fill="#242424" d="M 296.5,161.5 C 297.167,161.833 297.833,162.167 298.5,162.5C 298.5,163.167 298.5,163.833 298.5,164.5C 297.094,164.027 296.427,163.027 296.5,161.5 Z"/></g>
<g><path style="opacity:0.02" fill="#3c3c3c" d="M 322.5,163.5 C 321.833,163.5 321.5,163.167 321.5,162.5C 321.747,160.025 322.413,160.025 323.5,162.5C 323.376,163.107 323.043,163.44 322.5,163.5 Z"/></g>
<g><path style="opacity:0.005" fill="#0c0c0c" d="M 331.5,162.5 C 333.924,162.192 336.257,162.526 338.5,163.5C 337.333,163.833 336.167,164.167 335,164.5C 333.319,164.392 332.152,163.725 331.5,162.5 Z"/></g>
<g><path style="opacity:0.005" fill="#131313" d="M 339.5,162.5 C 341.983,162.73 342.483,163.397 341,164.5C 339.97,164.164 339.47,163.497 339.5,162.5 Z"/></g>
<g><path style="opacity:0.012" fill="#282828" d="M 349.5,164.5 C 348.127,164.657 346.793,164.49 345.5,164C 347.124,161.981 348.457,162.148 349.5,164.5 Z"/></g>
<g><path style="opacity:0.006" fill="#2b2b2b" d="M 56.5,163.5 C 57.7125,164.497 57.5458,165.497 56,166.5C 55.5357,165.906 55.369,165.239 55.5,164.5C 56.1667,164.5 56.5,164.167 56.5,163.5 Z"/></g>
<g><path style="opacity:0.004" fill="#000000" d="M 329.5,164.5 C 330.833,165.167 330.833,165.167 329.5,164.5 Z"/></g>
<g><path style="opacity:0.008" fill="#000000" d="M 349.5,164.5 C 350.167,164.5 350.5,164.833 350.5,165.5C 350.167,165.167 349.833,164.833 349.5,164.5 Z"/></g>
<g><path style="opacity:0.004" fill="#2a2238" d="M 298.5,164.5 C 299.167,164.833 299.833,165.167 300.5,165.5C 300.5,166.167 300.5,166.833 300.5,167.5C 299.094,167.027 298.427,166.027 298.5,164.5 Z"/></g>
<g><path style="opacity:0.512" fill="#3f3e40" d="M 331.5,165.5 C 333.833,165.5 336.167,165.5 338.5,165.5C 337.077,168.064 335.91,171.398 335,175.5C 334.09,171.398 332.923,168.064 331.5,165.5 Z"/></g>
<g><path style="opacity:0.555" fill="#3f3e40" d="M 343.5,166.5 C 344.268,170.139 344.934,169.806 345.5,165.5C 346.833,165.5 348.167,165.5 349.5,165.5C 349.905,169.048 349.405,172.381 348,175.5C 347.085,174.672 346.419,173.672 346,172.5C 345.29,173.973 344.124,174.64 342.5,174.5C 342.649,173.448 342.483,172.448 342,171.5C 341.781,172.938 341.281,174.271 340.5,175.5C 339.513,172.232 339.18,168.898 339.5,165.5C 340.959,165.433 342.292,165.766 343.5,166.5 Z M 345.5,165.5 C 344.934,169.806 344.268,170.139 343.5,166.5C 344.167,166.167 344.833,165.833 345.5,165.5 Z"/></g>
<g><path style="opacity:0.035" fill="#3f3f3f" d="M 197.5,163.5 C 198.622,165.288 198.789,167.288 198,169.5C 197.505,167.527 197.338,165.527 197.5,163.5 Z"/></g>
<g><path style="opacity:0.016" fill="#3d3d3d" d="M 326.5,167.5 C 325.833,167.167 325.167,166.833 324.5,166.5C 325.301,164.207 325.968,164.54 326.5,167.5 Z"/></g>
<g><path style="opacity:0.012" fill="#393939" d="M 329.5,165.5 C 329.631,166.239 329.464,166.906 329,167.5C 328.308,166.563 328.475,165.897 329.5,165.5 Z"/></g>
<g><path style="opacity:0.004" fill="#282828" d="M 125.5,167.5 C 126.239,167.369 126.906,167.536 127.5,168C 126.529,169.481 125.196,170.315 123.5,170.5C 123.833,169.833 124.167,169.167 124.5,168.5C 125.167,168.5 125.5,168.167 125.5,167.5 Z"/></g>
<g><path style="opacity:0.004" fill="#2c2c2c" d="M 153.5,166.5 C 154.167,166.5 154.5,166.833 154.5,167.5C 155.167,167.5 155.5,167.833 155.5,168.5C 156.167,168.5 156.5,168.833 156.5,169.5C 154.732,170.507 153.399,169.841 152.5,167.5C 152.624,166.893 152.957,166.56 153.5,166.5 Z"/></g>
<g><path style="opacity:0.004" fill="#202020" d="M 326.5,167.5 C 327.906,167.973 328.573,168.973 328.5,170.5C 328.167,170.5 327.833,170.5 327.5,170.5C 326.833,170.5 326.5,170.167 326.5,169.5C 326.5,168.833 326.5,168.167 326.5,167.5 Z"/></g>
<g><path style="opacity:0.005" fill="#2a2a2a" d="M 259.5,162.5 C 259.656,166.582 259.156,170.582 258,174.5C 257.721,170.3 258.221,166.3 259.5,162.5 Z"/></g>
<g><path style="opacity:0.016" fill="#3f3f40" d="M 284.5,141.5 C 285.167,141.5 285.5,141.833 285.5,142.5C 284.021,153.183 282.355,163.85 280.5,174.5C 281.239,163.581 282.573,152.581 284.5,141.5 Z"/></g>
<g><path style="opacity:0.012" fill="#474747" d="M 300.5,167.5 C 301.167,167.833 301.833,168.167 302.5,168.5C 302.5,169.167 302.5,169.833 302.5,170.5C 301.094,170.027 300.427,169.027 300.5,167.5 Z"/></g>
<g><path style="opacity:0.024" fill="#353335" d="M 350.5,165.5 C 351.638,168.304 351.805,171.304 351,174.5C 350.502,171.518 350.335,168.518 350.5,165.5 Z"/></g>
<g><path style="opacity:0.006" fill="#2b2b2b" d="M 121.5,170.5 C 122.167,170.5 122.833,170.5 123.5,170.5C 121.606,173.187 120.939,173.187 121.5,170.5 Z"/></g>
<g><path style="opacity:0.016" fill="#3f403f" d="M 328.5,170.5 C 329.167,170.5 329.5,170.833 329.5,171.5C 329.167,171.167 328.833,170.833 328.5,170.5 Z"/></g>
<g><path style="opacity:0.016" fill="#323232" d="M 330.5,172.5 C 331.268,171.737 331.768,170.737 332,169.5C 332.798,171.259 332.631,172.926 331.5,174.5C 330.702,174.043 330.369,173.376 330.5,172.5 Z"/></g>
<g><path style="opacity:0.008" fill="#5e5e5e" d="M 337.5,169.5 C 338.613,170.946 338.78,172.613 338,174.5C 337.506,172.866 337.34,171.199 337.5,169.5 Z"/></g>
<g><path style="opacity:0.004" fill="#1b1b1b" d="M 49.5,170.5 C 51.7929,171.301 51.4596,171.968 48.5,172.5C 48.5,172.167 48.5,171.833 48.5,171.5C 49.1667,171.5 49.5,171.167 49.5,170.5 Z"/></g>
<g><path style="opacity:0.012" fill="#3e3e3e" d="M 302.5,170.5 C 303.167,170.833 303.833,171.167 304.5,171.5C 304.5,172.167 304.5,172.833 304.5,173.5C 303.094,173.027 302.427,172.027 302.5,170.5 Z"/></g>
<g><path style="opacity:0.008" fill="#7f807f" d="M 329.5,171.5 C 330.167,171.5 330.5,171.833 330.5,172.5C 330.167,172.167 329.833,171.833 329.5,171.5 Z"/></g>
<g><path style="opacity:0.006" fill="#202020" d="M 46.5,172.5 C 47.1667,172.5 47.8333,172.5 48.5,172.5C 46.6061,175.187 45.9394,175.187 46.5,172.5 Z"/></g>
<g><path style="opacity:0.012" fill="#3c3c3c" d="M 195.5,174.5 C 196.09,173.234 196.59,171.901 197,170.5C 197.844,172.463 197.344,173.796 195.5,174.5 Z"/></g>
<g><path style="opacity:0.004" fill="#1d1d1d" d="M 192.5,174.5 C 193.5,174.5 194.5,174.5 195.5,174.5C 194.22,175.931 192.553,176.598 190.5,176.5C 191.167,175.833 191.833,175.167 192.5,174.5 Z"/></g>
<g><path style="opacity:0.004" fill="#1a1a1a" d="M 40.5,175.5 C 41.552,175.351 42.552,175.517 43.5,176C 41.9751,177.009 40.3084,177.509 38.5,177.5C 39.1667,176.833 39.8333,176.167 40.5,175.5 Z"/></g>
<g><path style="opacity:0.004" fill="#000000" d="M 346.5,176.5 C 345.833,175.167 345.833,175.167 346.5,176.5 Z"/></g>
<g><path style="opacity:0.008" fill="#787278" d="M 198.5,177.5 C 203.65,176.349 208.984,176.183 214.5,177C 209.177,177.499 203.844,177.666 198.5,177.5 Z"/></g>
<g><path style="opacity:0.008" fill="#6e6e6e" d="M 221.5,177.5 C 226.985,176.348 232.651,176.182 238.5,177C 232.843,177.499 227.176,177.666 221.5,177.5 Z"/></g>
<g><path style="opacity:0.008" fill="#767275" d="M 260.5,177.5 C 266.319,176.347 272.319,176.181 278.5,177C 272.509,177.499 266.509,177.666 260.5,177.5 Z"/></g>
<g><path style="opacity:0.008" fill="#3f3f3f" d="M 333.5,177.5 C 334.251,176.427 335.251,176.26 336.5,177C 335.552,177.483 334.552,177.649 333.5,177.5 Z"/></g>
<g><path style="opacity:0.008" fill="#000000" d="M 339.5,177.5 C 339.897,176.475 340.563,176.308 341.5,177C 340.906,177.464 340.239,177.631 339.5,177.5 Z"/></g>
<g><path style="opacity:0.006" fill="#000000" d="M 345.5,176.5 C 345.103,177.525 344.437,177.692 343.5,177C 344.094,176.536 344.761,176.369 345.5,176.5 Z"/></g>
<g><path style="opacity:0.008" fill="#3f3f3f" d="M 346.5,176.5 C 347.552,176.351 348.552,176.517 349.5,177C 348.251,177.74 347.251,177.573 346.5,176.5 Z"/></g>
<g><path style="opacity:0.004" fill="#1d1d1d" d="M 90.5,178.5 C 96.3533,178.513 102.353,178.347 108.5,178C 105.5,178.5 102.5,179 99.5,179.5C 96.5318,178.838 93.5318,178.505 90.5,178.5 Z"/></g>
<g><path style="opacity:0.024" fill="#2b272a" d="M 190.5,176.5 C 183.801,179.606 176.801,180.106 169.5,178C 176.474,178.415 183.474,177.915 190.5,176.5 Z"/></g>
<g><path style="opacity:0.02" fill="#363636" d="M 38.5,177.5 C 37.3915,178.29 36.0581,178.79 34.5,179C 29.8333,179.667 25.1667,179.667 20.5,179C 26.5147,178.576 32.5147,178.076 38.5,177.5 Z"/></g>
<g><path style="opacity:0.006" fill="#343236" d="M 83.5,173.5 C 83.2172,174.289 82.7172,174.956 82,175.5C 81.2454,182.537 80.2454,189.537 79,196.5C 79.0754,188.48 79.7421,180.48 81,172.5C 81.6708,173.252 82.5041,173.586 83.5,173.5 Z"/></g>
<g><path style="opacity:0.004" fill="#000000" d="M 76.5,196.5 C 77.8333,197.167 77.8333,197.167 76.5,196.5 Z"/></g>
<g><path style="opacity:0.008" fill="#6d6d6d" d="M 76.5,197.5 C 71.3497,198.651 66.0164,198.817 60.5,198C 65.8229,197.501 71.1563,197.334 76.5,197.5 Z"/></g>
</svg>
